<svg width="304" height="160" viewBox="0 0 304 160" fill="none" xmlns="http://www.w3.org/2000/svg">
<rect width="304" height="160" rx="8" fill="white"/>
<g opacity="0.8">
<g clip-path="url(#clip0_2108_28991)">
<g clip-path="url(#clip1_2108_28991)">
<path fill-rule="evenodd" clip-rule="evenodd" d="M296 9L8 9V8L296 8V9Z" fill="#E5E5E5"/>
<path fill-rule="evenodd" clip-rule="evenodd" d="M296 24.8887L8 24.8887V23.8887L296 23.8887V24.8887Z" fill="#E5E5E5"/>
<path fill-rule="evenodd" clip-rule="evenodd" d="M296 40.7778L8 40.7778V39.7778L296 39.7778V40.7778Z" fill="#E5E5E5"/>
<path fill-rule="evenodd" clip-rule="evenodd" d="M296 56.6665L8 56.6665V55.6665L296 55.6665V56.6665Z" fill="#E5E5E5"/>
<path fill-rule="evenodd" clip-rule="evenodd" d="M296 72.5557L8 72.5557V71.5557L296 71.5557V72.5557Z" fill="#E5E5E5"/>
<path fill-rule="evenodd" clip-rule="evenodd" d="M296 88.4443L8 88.4443V87.4443L296 87.4443V88.4443Z" fill="#E5E5E5"/>
<path fill-rule="evenodd" clip-rule="evenodd" d="M296 104.333L8 104.333V103.333L296 103.333V104.333Z" fill="#E5E5E5"/>
<path fill-rule="evenodd" clip-rule="evenodd" d="M296 120.222L8 120.222V119.222L296 119.222V120.222Z" fill="#E5E5E5"/>
<path fill-rule="evenodd" clip-rule="evenodd" d="M296 136.111L8 136.111V135.111L296 135.111V136.111Z" fill="#E5E5E5"/>
<path fill-rule="evenodd" clip-rule="evenodd" d="M296 152L8 152V151L296 151V152Z" fill="#E5E5E5"/>
</g>
<path fill-rule="evenodd" clip-rule="evenodd" d="M7.99999 152L8 8L9 8L8.99999 152L7.99999 152Z" fill="#E5E5E5"/>
<path fill-rule="evenodd" clip-rule="evenodd" d="M39.8887 152L39.8887 8L40.8887 8L40.8887 152L39.8887 152Z" fill="#E5E5E5"/>
<path fill-rule="evenodd" clip-rule="evenodd" d="M71.7773 152L71.7773 8L72.7773 8L72.7773 152L71.7773 152Z" fill="#E5E5E5"/>
<path fill-rule="evenodd" clip-rule="evenodd" d="M103.667 152L103.667 8L104.667 8L104.667 152L103.667 152Z" fill="#E5E5E5"/>
<path fill-rule="evenodd" clip-rule="evenodd" d="M135.556 152L135.556 8L136.556 8L136.556 152L135.556 152Z" fill="#E5E5E5"/>
<path fill-rule="evenodd" clip-rule="evenodd" d="M167.444 152L167.444 8L168.444 8L168.444 152L167.444 152Z" fill="#E5E5E5"/>
<path fill-rule="evenodd" clip-rule="evenodd" d="M199.333 152L199.333 8L200.333 8L200.333 152L199.333 152Z" fill="#E5E5E5"/>
<path fill-rule="evenodd" clip-rule="evenodd" d="M231.223 152L231.223 8L232.223 8L232.223 152L231.223 152Z" fill="#E5E5E5"/>
<path fill-rule="evenodd" clip-rule="evenodd" d="M263.111 152L263.111 8L264.111 8L264.111 152L263.111 152Z" fill="#E5E5E5"/>
<path fill-rule="evenodd" clip-rule="evenodd" d="M295 152L295 8L296 8L296 152L295 152Z" fill="#E5E5E5"/>
</g>
<rect x="8.5" y="8.5" width="287" height="143" rx="3.5" stroke="#E5E5E5"/>
</g>
<defs>
<clipPath id="clip0_2108_28991">
<rect x="8" y="8" width="288" height="144" rx="4" fill="white"/>
</clipPath>
<clipPath id="clip1_2108_28991">
<rect x="296" y="8" width="144" height="288" rx="2" transform="rotate(90 296 8)" fill="white"/>
</clipPath>
</defs>
</svg>
