<svg width="304" height="160" viewBox="0 0 304 160" fill="none" xmlns="http://www.w3.org/2000/svg">
<rect width="304" height="160" rx="8" fill="white"/>
<rect x="24" y="26" width="132" height="56" rx="8" fill="#737373"/>
<path d="M95.999 45.25H83.999C81.581 45.25 80.249 46.582 80.249 49V59C80.249 61.418 81.581 62.75 83.999 62.75H95.999C98.417 62.75 99.749 61.418 99.749 59V49C99.749 46.582 98.417 45.25 95.999 45.25ZM83.999 46.75H95.999C97.576 46.75 98.249 47.423 98.249 49V56.25L93.709 51.71C93.319 51.32 92.6791 51.32 92.2891 51.71L87.349 56.6499C87.159 56.8399 86.839 56.8399 86.649 56.6499L85.709 55.71C85.319 55.32 84.6791 55.32 84.2891 55.71L81.749 58.25V49C81.749 47.423 82.422 46.75 83.999 46.75ZM84.749 51C84.749 50.31 85.3031 49.75 85.9921 49.75H86.0021C86.6911 49.75 87.25 50.31 87.25 51C87.25 51.69 86.6921 52.25 86.0021 52.25C85.3131 52.25 84.749 51.69 84.749 51Z" fill="white"/>
<rect x="24" y="90" width="84" height="8" rx="2" fill="#737373"/>
<rect x="24" y="106" width="116" height="4" rx="2" fill="#737373"/>
<rect x="24" y="114" width="108" height="4" rx="2" fill="#737373"/>
<rect x="24" y="126" width="8" height="8" rx="4" fill="#737373"/>
<rect x="36" y="128" width="16" height="4" rx="2" fill="#737373"/>
<rect x="56" y="128" width="16" height="4" rx="2" fill="#737373"/>
<rect x="180" y="24" width="48" height="48" rx="8" fill="#737373"/>
<path d="M201.338 44.3334C201.338 42.8627 202.534 41.6667 204.005 41.6667C205.476 41.6667 206.672 42.8627 206.672 44.3334C206.672 45.8041 205.476 47.0001 204.005 47.0001C202.534 47.0001 201.338 45.8041 201.338 44.3334ZM205.332 48.3334H202.666C199.959 48.3334 198.999 50.3154 198.999 52.0128C198.999 53.5308 199.806 54.3334 201.334 54.3334H206.664C208.192 54.3334 208.999 53.5308 208.999 52.0128C208.999 50.3154 208.039 48.3334 205.332 48.3334Z" fill="white"/>
<rect x="236" y="30" width="28" height="8" rx="2" fill="#737373"/>
<rect x="236" y="42" width="44" height="4" rx="2" fill="#737373"/>
<rect x="236" y="50" width="36" height="4" rx="2" fill="#737373"/>
<rect x="236" y="58" width="8" height="8" rx="4" fill="#737373"/>
<rect x="248" y="60" width="16" height="4" rx="2" fill="#737373"/>
<rect x="180" y="88" width="48" height="48" rx="8" fill="#737373"/>
<path d="M201.338 108.333C201.338 106.863 202.534 105.667 204.005 105.667C205.476 105.667 206.672 106.863 206.672 108.333C206.672 109.804 205.476 111 204.005 111C202.534 111 201.338 109.804 201.338 108.333ZM205.332 112.333H202.666C199.959 112.333 198.999 114.315 198.999 116.013C198.999 117.531 199.806 118.333 201.334 118.333H206.664C208.192 118.333 208.999 117.531 208.999 116.013C208.999 114.315 208.039 112.333 205.332 112.333Z" fill="white"/>
<rect x="236" y="94" width="28" height="8" rx="2" fill="#737373"/>
<rect x="236" y="106" width="44" height="4" rx="2" fill="#737373"/>
<rect x="236" y="114" width="36" height="4" rx="2" fill="#737373"/>
<rect x="236" y="122" width="8" height="8" rx="4" fill="#737373"/>
<rect x="248" y="124" width="16" height="4" rx="2" fill="#737373"/>
</svg>
