<svg width="304" height="160" viewBox="0 0 304 160" fill="none" xmlns="http://www.w3.org/2000/svg">
<rect width="304" height="160" rx="8" fill="white"/>
<rect x="24" y="24" width="8" height="8" rx="4" fill="#737373"/>
<rect x="36" y="26" width="16" height="4" rx="2" fill="#737373"/>
<rect x="56" y="26" width="16" height="4" rx="2" fill="#737373"/>
<rect x="24" y="40" width="72" height="12" rx="2" fill="#737373"/>
<rect x="24" y="60" width="104" height="4" rx="2" fill="#737373"/>
<rect x="24" y="68" width="96" height="4" rx="2" fill="#737373"/>
<rect x="160" y="24" width="8" height="8" rx="4" fill="#737373"/>
<rect x="172" y="26" width="16" height="4" rx="2" fill="#737373"/>
<rect x="192" y="26" width="16" height="4" rx="2" fill="#737373"/>
<rect x="160" y="40" width="72" height="12" rx="2" fill="#737373"/>
<rect x="160" y="60" width="104" height="4" rx="2" fill="#737373"/>
<rect x="160" y="68" width="96" height="4" rx="2" fill="#737373"/>
<rect x="24" y="88" width="8" height="8" rx="4" fill="#737373"/>
<rect x="36" y="90" width="16" height="4" rx="2" fill="#737373"/>
<rect x="56" y="90" width="16" height="4" rx="2" fill="#737373"/>
<rect x="24" y="104" width="72" height="12" rx="2" fill="#737373"/>
<rect x="24" y="124" width="104" height="4" rx="2" fill="#737373"/>
<rect x="24" y="132" width="96" height="4" rx="2" fill="#737373"/>
<rect x="160" y="88" width="8" height="8" rx="4" fill="#737373"/>
<rect x="172" y="90" width="16" height="4" rx="2" fill="#737373"/>
<rect x="192" y="90" width="16" height="4" rx="2" fill="#737373"/>
<rect x="160" y="104" width="72" height="12" rx="2" fill="#737373"/>
<rect x="160" y="124" width="104" height="4" rx="2" fill="#737373"/>
<rect x="160" y="132" width="96" height="4" rx="2" fill="#737373"/>
</svg>
