<svg width="304" height="160" viewBox="0 0 304 160" fill="none" xmlns="http://www.w3.org/2000/svg">
<rect width="304" height="160" rx="8" fill="white"/>
<rect x="24" y="24" width="77.3333" height="56" rx="8" fill="#737373"/>
<path d="M68.666 43.25H56.666C54.248 43.25 52.916 44.582 52.916 47V57C52.916 59.418 54.248 60.75 56.666 60.75H68.666C71.084 60.75 72.416 59.418 72.416 57V47C72.416 44.582 71.084 43.25 68.666 43.25ZM56.666 44.75H68.666C70.243 44.75 70.916 45.423 70.916 47V54.25L66.376 49.71C65.986 49.32 65.3461 49.32 64.9561 49.71L60.016 54.6499C59.826 54.8399 59.506 54.8399 59.316 54.6499L58.376 53.71C57.986 53.32 57.3461 53.32 56.9561 53.71L54.416 56.25V47C54.416 45.423 55.089 44.75 56.666 44.75ZM57.416 49C57.416 48.31 57.9701 47.75 58.6591 47.75H58.6691C59.3581 47.75 59.917 48.31 59.917 49C59.917 49.69 59.3591 50.25 58.6691 50.25C57.9801 50.25 57.416 49.69 57.416 49Z" fill="white"/>
<rect x="24" y="88" width="8" height="8" rx="4" fill="#737373"/>
<rect x="36" y="90" width="16" height="4" rx="2" fill="#737373"/>
<rect x="56" y="90" width="16" height="4" rx="2" fill="#737373"/>
<rect x="24" y="104" width="69.3333" height="8" rx="2" fill="#737373"/>
<rect x="24" y="116" width="53.3333" height="8" rx="2" fill="#737373"/>
<rect x="24" y="132" width="37.3333" height="4" rx="2" fill="#737373"/>
<rect x="113.333" y="24" width="77.3333" height="56" rx="8" fill="#737373"/>
<path d="M157.999 43.25H145.999C143.581 43.25 142.249 44.582 142.249 47V57C142.249 59.418 143.581 60.75 145.999 60.75H157.999C160.417 60.75 161.749 59.418 161.749 57V47C161.749 44.582 160.417 43.25 157.999 43.25ZM145.999 44.75H157.999C159.576 44.75 160.249 45.423 160.249 47V54.25L155.709 49.71C155.319 49.32 154.679 49.32 154.289 49.71L149.349 54.6499C149.159 54.8399 148.839 54.8399 148.649 54.6499L147.709 53.71C147.319 53.32 146.679 53.32 146.289 53.71L143.749 56.25V47C143.749 45.423 144.422 44.75 145.999 44.75ZM146.749 49C146.749 48.31 147.303 47.75 147.992 47.75H148.002C148.691 47.75 149.25 48.31 149.25 49C149.25 49.69 148.692 50.25 148.002 50.25C147.313 50.25 146.749 49.69 146.749 49Z" fill="white"/>
<rect x="113.333" y="88" width="8" height="8" rx="4" fill="#737373"/>
<rect x="125.333" y="90" width="16" height="4" rx="2" fill="#737373"/>
<rect x="145.333" y="90" width="16" height="4" rx="2" fill="#737373"/>
<rect x="113.333" y="104" width="69.3333" height="8" rx="2" fill="#737373"/>
<rect x="113.333" y="116" width="53.3333" height="8" rx="2" fill="#737373"/>
<rect x="113.333" y="132" width="37.3333" height="4" rx="2" fill="#737373"/>
<rect x="202.667" y="24" width="77.3333" height="56" rx="8" fill="#737373"/>
<path d="M247.333 43.25H235.333C232.915 43.25 231.583 44.582 231.583 47V57C231.583 59.418 232.915 60.75 235.333 60.75H247.333C249.751 60.75 251.083 59.418 251.083 57V47C251.083 44.582 249.751 43.25 247.333 43.25ZM235.333 44.75H247.333C248.91 44.75 249.583 45.423 249.583 47V54.25L245.043 49.71C244.653 49.32 244.013 49.32 243.623 49.71L238.683 54.6499C238.493 54.8399 238.173 54.8399 237.983 54.6499L237.043 53.71C236.653 53.32 236.013 53.32 235.623 53.71L233.083 56.25V47C233.083 45.423 233.756 44.75 235.333 44.75ZM236.083 49C236.083 48.31 236.637 47.75 237.326 47.75H237.336C238.025 47.75 238.584 48.31 238.584 49C238.584 49.69 238.026 50.25 237.336 50.25C236.647 50.25 236.083 49.69 236.083 49Z" fill="white"/>
<rect x="202.667" y="88" width="8" height="8" rx="4" fill="#737373"/>
<rect x="214.667" y="90" width="16" height="4" rx="2" fill="#737373"/>
<rect x="234.667" y="90" width="16" height="4" rx="2" fill="#737373"/>
<rect x="202.667" y="104" width="69.3333" height="8" rx="2" fill="#737373"/>
<rect x="202.667" y="116" width="53.3333" height="8" rx="2" fill="#737373"/>
<rect x="202.667" y="132" width="37.3333" height="4" rx="2" fill="#737373"/>
</svg>
