<svg width="304" height="160" viewBox="0 0 304 160" fill="none" xmlns="http://www.w3.org/2000/svg">
<rect width="304" height="160" rx="8" fill="white"/>
<rect x="24" y="24" width="64" height="12" rx="4" fill="#737373"/>
<rect x="24" y="40" width="48" height="12" rx="4" fill="#737373"/>
<rect x="24" y="60" width="72" height="4" rx="2" fill="#737373"/>
<rect x="24" y="68" width="56" height="4" rx="2" fill="#737373"/>
<rect x="132" y="24" width="68" height="12" rx="2" fill="#737373"/>
<rect x="132" y="42" width="8" height="8" rx="4" fill="#737373"/>
<rect x="144" y="44" width="16" height="4" rx="2" fill="#737373"/>
<rect x="164" y="44" width="16" height="4" rx="2" fill="#737373"/>
<rect x="132" y="56" width="148" height="4" rx="2" fill="#737373"/>
<rect x="132" y="64" width="132" height="4" rx="2" fill="#737373"/>
<rect x="132" y="92" width="68" height="12" rx="2" fill="#737373"/>
<rect x="132" y="110" width="8" height="8" rx="4" fill="#737373"/>
<rect x="144" y="112" width="16" height="4" rx="2" fill="#737373"/>
<rect x="164" y="112" width="16" height="4" rx="2" fill="#737373"/>
<rect x="132" y="124" width="148" height="4" rx="2" fill="#737373"/>
<rect x="132" y="132" width="132" height="4" rx="2" fill="#737373"/>
</svg>
