<svg width="304" height="160" viewBox="0 0 304 160" fill="none" xmlns="http://www.w3.org/2000/svg">
<rect width="304" height="160" rx="8" fill="white"/>
<rect x="24" y="24" width="120" height="112" rx="8" fill="#737373"/>
<path d="M92.001 68.3333H76.001C72.777 68.3333 71.001 70.1093 71.001 73.3333V86.6666C71.001 89.8906 72.777 91.6666 76.001 91.6666H92.001C95.225 91.6666 97.001 89.8906 97.001 86.6666V73.3333C97.001 70.1093 95.225 68.3333 92.001 68.3333ZM76.001 70.3333H92.001C94.1036 70.3333 95.001 71.2306 95.001 73.3333V83L88.9476 76.9466C88.4276 76.4266 87.5744 76.4266 87.0544 76.9466L80.4676 83.5332C80.2143 83.7865 79.7877 83.7865 79.5343 83.5332L78.2809 82.2799C77.7609 81.7599 76.9077 81.7599 76.3877 82.2799L73.001 85.6666V73.3333C73.001 71.2306 73.8983 70.3333 76.001 70.3333ZM77.001 76C77.001 75.08 77.7397 74.3333 78.6584 74.3333H78.6717C79.5904 74.3333 80.3356 75.08 80.3356 76C80.3356 76.92 79.5917 77.6666 78.6717 77.6666C77.753 77.6666 77.001 76.92 77.001 76Z" fill="white"/>
<rect x="160" y="24" width="72" height="12" rx="4" fill="#737373"/>
<rect x="160" y="44" width="96" height="4" rx="2" fill="#737373"/>
<rect x="160" y="52" width="80" height="4" rx="2" fill="#737373"/>
<rect x="160.75" y="64.75" width="118.5" height="14.5" rx="3.25" fill="white" fill-opacity="0.01"/>
<rect x="160.75" y="64.75" width="118.5" height="14.5" rx="3.25" stroke="#737373" stroke-width="1.5"/>
<rect x="160.75" y="86.75" width="118.5" height="30.5" rx="3.25" fill="white" fill-opacity="0.01"/>
<rect x="160.75" y="86.75" width="118.5" height="30.5" rx="3.25" stroke="#737373" stroke-width="1.5"/>
<rect x="160" y="124" width="40" height="12" rx="4" fill="#171717"/>
</svg>
