<svg width="304" height="160" viewBox="0 0 304 160" fill="none" xmlns="http://www.w3.org/2000/svg">
<rect width="304" height="160" rx="8" fill="white"/>
<rect x="24" y="24" width="90" height="12" rx="4" fill="#737373"/>
<rect x="24" y="40" width="74" height="12" rx="4" fill="#737373"/>
<rect x="24" y="60" width="98" height="4" rx="2" fill="#737373"/>
<rect x="24" y="68" width="82" height="4" rx="2" fill="#737373"/>
<rect x="158.75" y="24.75" width="120.5" height="14.5" rx="3.25" fill="white" fill-opacity="0.01"/>
<rect x="158.75" y="24.75" width="120.5" height="14.5" rx="3.25" stroke="#737373" stroke-width="1.5"/>
<rect x="158.75" y="46.75" width="120.5" height="14.5" rx="3.25" fill="white" fill-opacity="0.01"/>
<rect x="158.75" y="46.75" width="120.5" height="14.5" rx="3.25" stroke="#737373" stroke-width="1.5"/>
<rect x="158.75" y="68.75" width="120.5" height="30.5" rx="3.25" fill="white" fill-opacity="0.01"/>
<rect x="158.75" y="68.75" width="120.5" height="30.5" rx="3.25" stroke="#737373" stroke-width="1.5"/>
<rect x="158" y="106" width="40" height="12" rx="4" fill="#171717"/>
</svg>