<svg width="304" height="160" viewBox="0 0 304 160" fill="none" xmlns="http://www.w3.org/2000/svg">
<rect width="304" height="160" rx="8" fill="white"/>
<g opacity="0.5">
<rect width="256" height="32" transform="translate(24 24)" fill="#FAFAFA"/>
</g>
<rect width="256" height="56" transform="translate(24 56)" fill="#F5F5F5"/>
<path d="M40 71.8935V64.1065H42.1141V70.1901H45.2624V71.8935H40Z" fill="#404040"/>
<path d="M53.3574 68C53.3574 68.8669 53.1888 69.5982 52.8517 70.1939C52.5146 70.7871 52.0596 71.237 51.4867 71.5437C50.9138 71.8479 50.275 72 49.5703 72C48.8606 72 48.2193 71.8466 47.6464 71.5399C47.076 71.2307 46.6223 70.7795 46.2852 70.1863C45.9506 69.5906 45.7833 68.8619 45.7833 68C45.7833 67.1331 45.9506 66.403 46.2852 65.8099C46.6223 65.2142 47.076 64.7643 47.6464 64.4601C48.2193 64.1534 48.8606 64 49.5703 64C50.275 64 50.9138 64.1534 51.4867 64.4601C52.0596 64.7643 52.5146 65.2142 52.8517 65.8099C53.1888 66.403 53.3574 67.1331 53.3574 68ZM51.1825 68C51.1825 67.5336 51.1204 67.1407 50.9962 66.8213C50.8745 66.4994 50.6933 66.256 50.4525 66.0913C50.2142 65.924 49.9202 65.8403 49.5703 65.8403C49.2205 65.8403 48.9252 65.924 48.6844 66.0913C48.4461 66.256 48.2649 66.4994 48.1407 66.8213C48.019 67.1407 47.9582 67.5336 47.9582 68C47.9582 68.4664 48.019 68.8606 48.1407 69.1825C48.2649 69.5019 48.4461 69.7452 48.6844 69.9125C48.9252 70.0773 49.2205 70.1597 49.5703 70.1597C49.9202 70.1597 50.2142 70.0773 50.4525 69.9125C50.6933 69.7452 50.8745 69.5019 50.9962 69.1825C51.1204 68.8606 51.1825 68.4664 51.1825 68Z" fill="#404040"/>
<path d="M59.3926 66.6768C59.3596 66.5425 59.3077 66.4246 59.2367 66.3232C59.1657 66.2193 59.077 66.1318 58.9705 66.0608C58.8666 65.9873 58.7449 65.9328 58.6055 65.8973C58.4686 65.8593 58.3178 65.8403 58.153 65.8403C57.7982 65.8403 57.4952 65.9252 57.2443 66.0951C56.9959 66.2649 56.8058 66.5095 56.674 66.8289C56.5447 67.1483 56.48 67.5336 56.48 67.9848C56.48 68.4411 56.5421 68.8314 56.6663 69.1559C56.7906 69.4804 56.9756 69.7288 57.2215 69.9011C57.4674 70.0735 57.7728 70.1597 58.1378 70.1597C58.4598 70.1597 58.7272 70.1128 58.9401 70.019C59.1556 69.9252 59.3165 69.7921 59.423 69.6198C59.5295 69.4474 59.5827 69.2446 59.5827 69.0114L59.9477 69.0494H58.1682V67.5437H61.6207V68.6236C61.6207 69.3333 61.4699 69.9404 61.1683 70.4449C60.8691 70.9468 60.456 71.3321 59.9287 71.6008C59.404 71.8669 58.802 72 58.1226 72C57.3647 72 56.6993 71.839 56.1264 71.5171C55.5535 71.1952 55.1061 70.7364 54.7842 70.1407C54.4648 69.545 54.3051 68.8365 54.3051 68.0152C54.3051 67.3714 54.4027 66.801 54.5979 66.3042C54.7956 65.8074 55.0694 65.3878 55.4192 65.0456C55.769 64.7009 56.1733 64.4411 56.6321 64.2662C57.0909 64.0887 57.5827 64 58.1074 64C58.5688 64 58.9971 64.0659 59.3926 64.1977C59.7906 64.327 60.1416 64.512 60.4458 64.7529C60.7525 64.9911 60.9997 65.2738 61.1873 65.6008C61.3748 65.9278 61.4889 66.2864 61.5295 66.6768H59.3926Z" fill="#404040"/>
<path d="M70.1502 68C70.1502 68.8669 69.9816 69.5982 69.6445 70.1939C69.3073 70.7871 68.8523 71.237 68.2795 71.5437C67.7066 71.8479 67.0678 72 66.3631 72C65.6534 72 65.012 71.8466 64.4392 71.5399C63.8688 71.2307 63.4151 70.7795 63.0779 70.1863C62.7433 69.5906 62.576 68.8619 62.576 68C62.576 67.1331 62.7433 66.403 63.0779 65.8099C63.4151 65.2142 63.8688 64.7643 64.4392 64.4601C65.012 64.1534 65.6534 64 66.3631 64C67.0678 64 67.7066 64.1534 68.2795 64.4601C68.8523 64.7643 69.3073 65.2142 69.6445 65.8099C69.9816 66.403 70.1502 67.1331 70.1502 68ZM67.9753 68C67.9753 67.5336 67.9132 67.1407 67.789 66.8213C67.6673 66.4994 67.4861 66.256 67.2452 66.0913C67.007 65.924 66.7129 65.8403 66.3631 65.8403C66.0133 65.8403 65.718 65.924 65.4772 66.0913C65.2389 66.256 65.0577 66.4994 64.9335 66.8213C64.8118 67.1407 64.7509 67.5336 64.7509 68C64.7509 68.4664 64.8118 68.8606 64.9335 69.1825C65.0577 69.5019 65.2389 69.7452 65.4772 69.9125C65.718 70.0773 66.0133 70.1597 66.3631 70.1597C66.7129 70.1597 67.007 70.0773 67.2452 69.9125C67.4861 69.7452 67.6673 69.5019 67.789 69.1825C67.9132 68.8606 67.9753 68.4664 67.9753 68Z" fill="#404040"/>
<rect x="40" y="80" width="50.3333" height="4" rx="2" fill="#737373"/>
<rect x="40" y="88" width="42.3333" height="4" rx="2" fill="#737373"/>
<rect x="40" y="96" width="8" height="8" rx="4" fill="#737373"/>
<rect x="52" y="96" width="8" height="8" rx="4" fill="#737373"/>
<rect x="64" y="96" width="8" height="8" rx="4" fill="#737373"/>
<rect width="1" height="36" transform="translate(114.333 66)" fill="#737373"/>
<rect x="131.333" y="66" width="42.3333" height="8" rx="2" fill="#737373"/>
<rect x="131.333" y="82" width="50.3333" height="4" rx="2" fill="#737373"/>
<rect x="131.333" y="90" width="42.3333" height="4" rx="2" fill="#737373"/>
<rect x="131.333" y="98" width="46.3333" height="4" rx="2" fill="#737373"/>
<rect x="205.667" y="66" width="42.3333" height="8" rx="2" fill="#737373"/>
<rect x="205.667" y="82" width="50.3333" height="4" rx="2" fill="#737373"/>
<rect x="205.667" y="90" width="42.3333" height="4" rx="2" fill="#737373"/>
<rect x="205.667" y="98" width="46.3333" height="4" rx="2" fill="#737373"/>
<g clip-path="url(#clip0_1087_36700)">
<rect width="256" height="24" transform="translate(24 112)" fill="#737373"/>
<rect x="48" y="122" width="64" height="4" rx="2" fill="#737373"/>
<rect x="224" y="120" width="8" height="8" rx="4" fill="#737373"/>
<rect x="236" y="120" width="8" height="8" rx="4" fill="#737373"/>
<rect x="248" y="120" width="8" height="8" rx="4" fill="#737373"/>
</g>
<defs>
<clipPath id="clip0_1087_36700">
<rect width="256" height="24" fill="white" transform="translate(24 112)"/>
</clipPath>
</defs>
</svg>
