<svg width="304" height="160" viewBox="0 0 304 160" fill="none" xmlns="http://www.w3.org/2000/svg">
<rect width="304" height="160" rx="8" fill="white"/>
<g opacity="0.5">
<rect width="256" height="36" transform="translate(24 24)" fill="#FAFAFA"/>
</g>
<rect width="256" height="52" transform="translate(24 60)" fill="#F5F5F5"/>
<rect x="40" y="68" width="28" height="8" rx="2" fill="#737373"/>
<rect x="40" y="84" width="36" height="4" rx="2" fill="#737373"/>
<rect x="40" y="92" width="28" height="4" rx="2" fill="#737373"/>
<rect x="40" y="100" width="32" height="4" rx="2" fill="#737373"/>
<rect x="100" y="68" width="28" height="8" rx="2" fill="#737373"/>
<rect x="100" y="84" width="36" height="4" rx="2" fill="#737373"/>
<rect x="100" y="92" width="28" height="4" rx="2" fill="#737373"/>
<rect x="100" y="100" width="32" height="4" rx="2" fill="#737373"/>
<rect x="160" y="68" width="28" height="8" rx="2" fill="#737373"/>
<rect x="160" y="84" width="36" height="4" rx="2" fill="#737373"/>
<rect x="160" y="92" width="28" height="4" rx="2" fill="#737373"/>
<rect x="160" y="100" width="32" height="4" rx="2" fill="#737373"/>
<rect x="220" y="68" width="28" height="8" rx="2" fill="#737373"/>
<rect x="220.75" y="84.75" width="42.5" height="10.5" rx="3.25" stroke="#737373" stroke-width="1.5"/>
<g clip-path="url(#clip0_1082_36390)">
<rect width="256" height="24" transform="translate(24 112)" fill="#737373"/>
<path d="M48 127.894V120.106H50.1141V126.19H53.2624V127.894H48Z" fill="white"/>
<path d="M61.3574 124C61.3574 124.867 61.1888 125.598 60.8517 126.194C60.5146 126.787 60.0596 127.237 59.4867 127.544C58.9138 127.848 58.275 128 57.5703 128C56.8606 128 56.2193 127.847 55.6464 127.54C55.076 127.231 54.6223 126.779 54.2852 126.186C53.9506 125.591 53.7833 124.862 53.7833 124C53.7833 123.133 53.9506 122.403 54.2852 121.81C54.6223 121.214 55.076 120.764 55.6464 120.46C56.2193 120.153 56.8606 120 57.5703 120C58.275 120 58.9138 120.153 59.4867 120.46C60.0596 120.764 60.5146 121.214 60.8517 121.81C61.1888 122.403 61.3574 123.133 61.3574 124ZM59.1825 124C59.1825 123.534 59.1204 123.141 58.9962 122.821C58.8745 122.499 58.6933 122.256 58.4525 122.091C58.2142 121.924 57.9202 121.84 57.5703 121.84C57.2205 121.84 56.9252 121.924 56.6844 122.091C56.4461 122.256 56.2649 122.499 56.1407 122.821C56.019 123.141 55.9582 123.534 55.9582 124C55.9582 124.466 56.019 124.861 56.1407 125.183C56.2649 125.502 56.4461 125.745 56.6844 125.913C56.9252 126.077 57.2205 126.16 57.5703 126.16C57.9202 126.16 58.2142 126.077 58.4525 125.913C58.6933 125.745 58.8745 125.502 58.9962 125.183C59.1204 124.861 59.1825 124.466 59.1825 124Z" fill="white"/>
<path d="M67.3926 122.677C67.3596 122.542 67.3077 122.425 67.2367 122.323C67.1657 122.219 67.077 122.132 66.9705 122.061C66.8666 121.987 66.7449 121.933 66.6055 121.897C66.4686 121.859 66.3178 121.84 66.153 121.84C65.7982 121.84 65.4952 121.925 65.2443 122.095C64.9959 122.265 64.8058 122.51 64.674 122.829C64.5447 123.148 64.48 123.534 64.48 123.985C64.48 124.441 64.5421 124.831 64.6663 125.156C64.7906 125.48 64.9756 125.729 65.2215 125.901C65.4674 126.074 65.7728 126.16 66.1378 126.16C66.4598 126.16 66.7272 126.113 66.9401 126.019C67.1556 125.925 67.3165 125.792 67.423 125.62C67.5295 125.447 67.5827 125.245 67.5827 125.011L67.9477 125.049H66.1682V123.544H69.6207V124.624C69.6207 125.333 69.4699 125.94 69.1683 126.445C68.8691 126.947 68.456 127.332 67.9287 127.601C67.404 127.867 66.802 128 66.1226 128C65.3647 128 64.6993 127.839 64.1264 127.517C63.5535 127.195 63.1061 126.736 62.7842 126.141C62.4648 125.545 62.3051 124.837 62.3051 124.015C62.3051 123.371 62.4027 122.801 62.5979 122.304C62.7956 121.807 63.0694 121.388 63.4192 121.046C63.769 120.701 64.1733 120.441 64.6321 120.266C65.0909 120.089 65.5827 120 66.1074 120C66.5688 120 66.9971 120.066 67.3926 120.198C67.7906 120.327 68.1416 120.512 68.4458 120.753C68.7525 120.991 68.9997 121.274 69.1873 121.601C69.3748 121.928 69.4889 122.286 69.5295 122.677H67.3926Z" fill="white"/>
<path d="M78.1502 124C78.1502 124.867 77.9816 125.598 77.6445 126.194C77.3073 126.787 76.8523 127.237 76.2795 127.544C75.7066 127.848 75.0678 128 74.3631 128C73.6534 128 73.012 127.847 72.4392 127.54C71.8688 127.231 71.4151 126.779 71.0779 126.186C70.7433 125.591 70.576 124.862 70.576 124C70.576 123.133 70.7433 122.403 71.0779 121.81C71.4151 121.214 71.8688 120.764 72.4392 120.46C73.012 120.153 73.6534 120 74.3631 120C75.0678 120 75.7066 120.153 76.2795 120.46C76.8523 120.764 77.3073 121.214 77.6445 121.81C77.9816 122.403 78.1502 123.133 78.1502 124ZM75.9753 124C75.9753 123.534 75.9132 123.141 75.789 122.821C75.6673 122.499 75.4861 122.256 75.2452 122.091C75.007 121.924 74.7129 121.84 74.3631 121.84C74.0133 121.84 73.718 121.924 73.4772 122.091C73.2389 122.256 73.0577 122.499 72.9335 122.821C72.8118 123.141 72.7509 123.534 72.7509 124C72.7509 124.466 72.8118 124.861 72.9335 125.183C73.0577 125.502 73.2389 125.745 73.4772 125.913C73.718 126.077 74.0133 126.16 74.3631 126.16C74.7129 126.16 75.007 126.077 75.2452 125.913C75.4861 125.745 75.6673 125.502 75.789 125.183C75.9132 124.861 75.9753 124.466 75.9753 124Z" fill="white"/>
<rect x="119.075" y="122" width="64" height="4" rx="2" fill="#737373"/>
<rect x="224" y="120" width="8" height="8" rx="4" fill="#737373"/>
<rect x="236" y="120" width="8" height="8" rx="4" fill="#737373"/>
<rect x="248" y="120" width="8" height="8" rx="4" fill="#737373"/>
</g>
<defs>
<clipPath id="clip0_1082_36390">
<rect width="256" height="24" fill="white" transform="translate(24 112)"/>
</clipPath>
</defs>
</svg>
