<svg width="304" height="160" viewBox="0 0 304 160" fill="none" xmlns="http://www.w3.org/2000/svg">
<rect width="304" height="160" rx="8" fill="white"/>
<rect x="24" y="24" width="120" height="112" rx="8" fill="#737373"/>
<path d="M92 68.3328H76C72.776 68.3328 71 70.1088 71 73.3328V86.6661C71 89.8901 72.776 91.6661 76 91.6661H92C95.224 91.6661 97 89.8901 97 86.6661V73.3328C97 70.1088 95.224 68.3328 92 68.3328ZM76 70.3328H92C94.1027 70.3328 95 71.2301 95 73.3328V82.9994L88.9466 76.946C88.4266 76.426 87.5734 76.426 87.0534 76.946L80.4666 83.5326C80.2133 83.786 79.7867 83.786 79.5334 83.5326L78.2799 82.2794C77.7599 81.7594 76.9067 81.7594 76.3867 82.2794L73 85.6661V73.3328C73 71.2301 73.8973 70.3328 76 70.3328ZM77 75.9994C77 75.0794 77.7387 74.3328 78.6574 74.3328H78.6707C79.5894 74.3328 80.3346 75.0794 80.3346 75.9994C80.3346 76.9194 79.5907 77.6661 78.6707 77.6661C77.7521 77.6661 77 76.9194 77 75.9994Z" fill="white"/>
<rect x="160" y="24" width="72" height="12" rx="4" fill="#737373"/>
<rect x="160" y="40" width="88" height="12" rx="4" fill="#737373"/>
<rect x="160" y="74" width="80" height="4" rx="2" fill="#737373"/>
<rect x="160" y="82" width="104" height="4" rx="2" fill="#737373"/>
<rect x="160" y="90" width="88" height="4" rx="2" fill="#737373"/>
<rect x="160" y="98" width="96" height="4" rx="2" fill="#737373"/>
<rect x="160" y="124" width="40" height="12" rx="4" fill="#171717"/>
<rect x="204.75" y="124.75" width="38.5" height="10.5" rx="3.25" stroke="#737373" stroke-width="1.5"/>
</svg>
