<svg width="304" height="160" viewBox="0 0 304 160" fill="none" xmlns="http://www.w3.org/2000/svg">
<rect width="304" height="160" rx="8" fill="white"/>
<rect x="24" y="24" width="120" height="112" rx="8" fill="#737373"/>
<path d="M92 68.3333H76C72.776 68.3333 71 70.1093 71 73.3333V86.6666C71 89.8906 72.776 91.6666 76 91.6666H92C95.224 91.6666 97 89.8906 97 86.6666V73.3333C97 70.1093 95.224 68.3333 92 68.3333ZM76 70.3333H92C94.1027 70.3333 95 71.2306 95 73.3333V83L88.9466 76.9466C88.4266 76.4266 87.5734 76.4266 87.0534 76.9466L80.4666 83.5332C80.2133 83.7865 79.7867 83.7865 79.5334 83.5332L78.2799 82.2799C77.7599 81.7599 76.9067 81.7599 76.3867 82.2799L73 85.6666V73.3333C73 71.2306 73.8973 70.3333 76 70.3333ZM77 76C77 75.08 77.7387 74.3333 78.6574 74.3333H78.6707C79.5894 74.3333 80.3346 75.08 80.3346 76C80.3346 76.92 79.5907 77.6666 78.6707 77.6666C77.7521 77.6666 77 76.92 77 76Z" fill="white"/>
<rect x="160" y="35" width="72" height="12" rx="4" fill="#737373"/>
<rect x="160" y="51" width="88" height="12" rx="4" fill="#737373"/>
<rect x="160" y="75" width="104" height="4" rx="2" fill="#737373"/>
<rect x="160" y="83" width="88" height="4" rx="2" fill="#737373"/>
<rect x="160" y="99" width="6" height="6" rx="3" fill="#737373"/>
<rect x="170" y="100" width="30" height="4" rx="2" fill="#737373"/>
<rect x="160" y="109" width="6" height="6" rx="3" fill="#737373"/>
<rect x="170" y="110" width="30" height="4" rx="2" fill="#737373"/>
<rect x="160" y="119" width="6" height="6" rx="3" fill="#737373"/>
<rect x="170" y="120" width="30" height="4" rx="2" fill="#737373"/>
<rect x="224" y="99" width="6" height="6" rx="3" fill="#737373"/>
<rect x="234" y="100" width="30" height="4" rx="2" fill="#737373"/>
<rect x="224" y="109" width="6" height="6" rx="3" fill="#737373"/>
<rect x="234" y="110" width="30" height="4" rx="2" fill="#737373"/>
<rect x="224" y="119" width="6" height="6" rx="3" fill="#737373"/>
<rect x="234" y="120" width="30" height="4" rx="2" fill="#737373"/>
</svg>
