<svg width="304" height="160" viewBox="0 0 304 160" fill="none" xmlns="http://www.w3.org/2000/svg">
<rect x="104" y="16" width="96" height="8" rx="4" fill="#737373"/>
<rect x="64" y="32" width="176" height="4" rx="2" fill="#737373"/>
<rect x="80" y="40" width="144" height="4" rx="2" fill="#737373"/>
<rect x="16" y="60" width="88" height="40" rx="8" fill="#737373"/>
<path d="M66 71.2499H54C51.582 71.2499 50.25 72.5819 50.25 74.9999V84.9999C50.25 87.4179 51.582 88.7499 54 88.7499H66C68.418 88.7499 69.75 87.4179 69.75 84.9999V74.9999C69.75 72.5819 68.418 71.2499 66 71.2499ZM54 72.7499H66C67.577 72.7499 68.25 73.4229 68.25 74.9999V82.2499L63.71 77.7099C63.32 77.3199 62.68 77.3199 62.29 77.7099L57.35 82.6498C57.16 82.8398 56.84 82.8398 56.65 82.6498L55.71 81.7099C55.32 81.3199 54.68 81.3199 54.29 81.7099L51.75 84.2499V74.9999C51.75 73.4229 52.423 72.7499 54 72.7499ZM54.75 76.9999C54.75 76.3099 55.304 75.7499 55.993 75.7499H56.0031C56.6921 75.7499 57.251 76.3099 57.251 76.9999C57.251 77.6899 56.6931 78.2499 56.0031 78.2499C55.3141 78.2499 54.75 77.6899 54.75 76.9999Z" fill="white"/>
<rect x="108" y="60" width="88" height="40" rx="8" fill="#737373"/>
<path d="M158 71.2499H146C143.582 71.2499 142.25 72.5819 142.25 74.9999V84.9999C142.25 87.4179 143.582 88.7499 146 88.7499H158C160.418 88.7499 161.75 87.4179 161.75 84.9999V74.9999C161.75 72.5819 160.418 71.2499 158 71.2499ZM146 72.7499H158C159.577 72.7499 160.25 73.4229 160.25 74.9999V82.2499L155.71 77.7099C155.32 77.3199 154.68 77.3199 154.29 77.7099L149.35 82.6498C149.16 82.8398 148.84 82.8398 148.65 82.6498L147.71 81.7099C147.32 81.3199 146.68 81.3199 146.29 81.7099L143.75 84.2499V74.9999C143.75 73.4229 144.423 72.7499 146 72.7499ZM146.75 76.9999C146.75 76.3099 147.304 75.7499 147.993 75.7499H148.003C148.692 75.7499 149.251 76.3099 149.251 76.9999C149.251 77.6899 148.693 78.2499 148.003 78.2499C147.314 78.2499 146.75 77.6899 146.75 76.9999Z" fill="white"/>
<rect x="200" y="60" width="88" height="40" rx="8" fill="#737373"/>
<path d="M250 71.2499H238C235.582 71.2499 234.25 72.5819 234.25 74.9999V84.9999C234.25 87.4179 235.582 88.7499 238 88.7499H250C252.418 88.7499 253.75 87.4179 253.75 84.9999V74.9999C253.75 72.5819 252.418 71.2499 250 71.2499ZM238 72.7499H250C251.577 72.7499 252.25 73.4229 252.25 74.9999V82.2499L247.71 77.7099C247.32 77.3199 246.68 77.3199 246.29 77.7099L241.35 82.6498C241.16 82.8398 240.84 82.8398 240.65 82.6498L239.71 81.7099C239.32 81.3199 238.68 81.3199 238.29 81.7099L235.75 84.2499V74.9999C235.75 73.4229 236.423 72.7499 238 72.7499ZM238.75 76.9999C238.75 76.3099 239.304 75.7499 239.993 75.7499H240.003C240.692 75.7499 241.251 76.3099 241.251 76.9999C241.251 77.6899 240.693 78.2499 240.003 78.2499C239.314 78.2499 238.75 77.6899 238.75 76.9999Z" fill="white"/>
<rect x="16" y="104" width="88" height="40" rx="8" fill="#737373"/>
<path d="M66 115.25H54C51.582 115.25 50.25 116.582 50.25 119V129C50.25 131.418 51.582 132.75 54 132.75H66C68.418 132.75 69.75 131.418 69.75 129V119C69.75 116.582 68.418 115.25 66 115.25ZM54 116.75H66C67.577 116.75 68.25 117.423 68.25 119V126.25L63.71 121.71C63.32 121.32 62.68 121.32 62.29 121.71L57.35 126.65C57.16 126.84 56.84 126.84 56.65 126.65L55.71 125.71C55.32 125.32 54.68 125.32 54.29 125.71L51.75 128.25V119C51.75 117.423 52.423 116.75 54 116.75ZM54.75 121C54.75 120.31 55.304 119.75 55.993 119.75H56.0031C56.6921 119.75 57.251 120.31 57.251 121C57.251 121.69 56.6931 122.25 56.0031 122.25C55.3141 122.25 54.75 121.69 54.75 121Z" fill="white"/>
<rect x="108" y="104" width="88" height="40" rx="8" fill="#737373"/>
<path d="M158 115.25H146C143.582 115.25 142.25 116.582 142.25 119V129C142.25 131.418 143.582 132.75 146 132.75H158C160.418 132.75 161.75 131.418 161.75 129V119C161.75 116.582 160.418 115.25 158 115.25ZM146 116.75H158C159.577 116.75 160.25 117.423 160.25 119V126.25L155.71 121.71C155.32 121.32 154.68 121.32 154.29 121.71L149.35 126.65C149.16 126.84 148.84 126.84 148.65 126.65L147.71 125.71C147.32 125.32 146.68 125.32 146.29 125.71L143.75 128.25V119C143.75 117.423 144.423 116.75 146 116.75ZM146.75 121C146.75 120.31 147.304 119.75 147.993 119.75H148.003C148.692 119.75 149.251 120.31 149.251 121C149.251 121.69 148.693 122.25 148.003 122.25C147.314 122.25 146.75 121.69 146.75 121Z" fill="white"/>
<rect x="200" y="104" width="88" height="40" rx="8" fill="#737373"/>
<path d="M250 115.25H238C235.582 115.25 234.25 116.582 234.25 119V129C234.25 131.418 235.582 132.75 238 132.75H250C252.418 132.75 253.75 131.418 253.75 129V119C253.75 116.582 252.418 115.25 250 115.25ZM238 116.75H250C251.577 116.75 252.25 117.423 252.25 119V126.25L247.71 121.71C247.32 121.32 246.68 121.32 246.29 121.71L241.35 126.65C241.16 126.84 240.84 126.84 240.65 126.65L239.71 125.71C239.32 125.32 238.68 125.32 238.29 125.71L235.75 128.25V119C235.75 117.423 236.423 116.75 238 116.75ZM238.75 121C238.75 120.31 239.304 119.75 239.993 119.75H240.003C240.692 119.75 241.251 120.31 241.251 121C241.251 121.69 240.693 122.25 240.003 122.25C239.314 122.25 238.75 121.69 238.75 121Z" fill="white"/>
</svg>
