<svg width="304" height="160" viewBox="0 0 304 160" fill="none" xmlns="http://www.w3.org/2000/svg">
<rect width="304" height="160" rx="8" fill="white"/>
<path d="M24 28C24 25.7909 25.7909 24 28 24H276C278.209 24 280 25.7909 280 28V52H24V28Z" fill="#F5F5F5"/>
<path d="M40 41.8935V34.1065H42.1141V40.1901H45.2624V41.8935H40Z" fill="black"/>
<path d="M53.3574 38C53.3574 38.8669 53.1888 39.5982 52.8517 40.1939C52.5146 40.7871 52.0596 41.237 51.4867 41.5437C50.9138 41.8479 50.275 42 49.5703 42C48.8606 42 48.2193 41.8466 47.6464 41.5399C47.076 41.2307 46.6223 40.7795 46.2852 40.1863C45.9506 39.5906 45.7833 38.8619 45.7833 38C45.7833 37.1331 45.9506 36.403 46.2852 35.8099C46.6223 35.2142 47.076 34.7643 47.6464 34.4601C48.2193 34.1534 48.8606 34 49.5703 34C50.275 34 50.9138 34.1534 51.4867 34.4601C52.0596 34.7643 52.5146 35.2142 52.8517 35.8099C53.1888 36.403 53.3574 37.1331 53.3574 38ZM51.1825 38C51.1825 37.5336 51.1204 37.1407 50.9962 36.8213C50.8745 36.4994 50.6933 36.256 50.4525 36.0913C50.2142 35.924 49.9202 35.8403 49.5703 35.8403C49.2205 35.8403 48.9252 35.924 48.6844 36.0913C48.4461 36.256 48.2649 36.4994 48.1407 36.8213C48.019 37.1407 47.9582 37.5336 47.9582 38C47.9582 38.4664 48.019 38.8606 48.1407 39.1825C48.2649 39.5019 48.4461 39.7452 48.6844 39.9125C48.9252 40.0773 49.2205 40.1597 49.5703 40.1597C49.9202 40.1597 50.2142 40.0773 50.4525 39.9125C50.6933 39.7452 50.8745 39.5019 50.9962 39.1825C51.1204 38.8606 51.1825 38.4664 51.1825 38Z" fill="black"/>
<path d="M59.3926 36.6768C59.3596 36.5425 59.3077 36.4246 59.2367 36.3232C59.1657 36.2193 59.077 36.1318 58.9705 36.0608C58.8666 35.9873 58.7449 35.9328 58.6055 35.8973C58.4686 35.8593 58.3178 35.8403 58.153 35.8403C57.7982 35.8403 57.4952 35.9252 57.2443 36.0951C56.9959 36.2649 56.8058 36.5095 56.674 36.8289C56.5447 37.1483 56.48 37.5336 56.48 37.9848C56.48 38.4411 56.5421 38.8314 56.6663 39.1559C56.7906 39.4804 56.9756 39.7288 57.2215 39.9011C57.4674 40.0735 57.7728 40.1597 58.1378 40.1597C58.4598 40.1597 58.7272 40.1128 58.9401 40.019C59.1556 39.9252 59.3165 39.7921 59.423 39.6198C59.5295 39.4474 59.5827 39.2446 59.5827 39.0114L59.9477 39.0494H58.1682V37.5437H61.6207V38.6236C61.6207 39.3333 61.4699 39.9404 61.1683 40.4449C60.8691 40.9468 60.456 41.3321 59.9287 41.6008C59.404 41.8669 58.802 42 58.1226 42C57.3647 42 56.6993 41.839 56.1264 41.5171C55.5535 41.1952 55.1061 40.7364 54.7842 40.1407C54.4648 39.545 54.3051 38.8365 54.3051 38.0152C54.3051 37.3714 54.4027 36.801 54.5979 36.3042C54.7956 35.8074 55.0694 35.3878 55.4192 35.0456C55.769 34.7009 56.1733 34.4411 56.6321 34.2662C57.0909 34.0887 57.5827 34 58.1074 34C58.5688 34 58.9971 34.0659 59.3926 34.1977C59.7906 34.327 60.1416 34.512 60.4458 34.7529C60.7525 34.9911 60.9997 35.2738 61.1873 35.6008C61.3748 35.9278 61.4889 36.2864 61.5295 36.6768H59.3926Z" fill="black"/>
<path d="M70.1502 38C70.1502 38.8669 69.9816 39.5982 69.6445 40.1939C69.3073 40.7871 68.8523 41.237 68.2795 41.5437C67.7066 41.8479 67.0678 42 66.3631 42C65.6534 42 65.012 41.8466 64.4392 41.5399C63.8688 41.2307 63.4151 40.7795 63.0779 40.1863C62.7433 39.5906 62.576 38.8619 62.576 38C62.576 37.1331 62.7433 36.403 63.0779 35.8099C63.4151 35.2142 63.8688 34.7643 64.4392 34.4601C65.012 34.1534 65.6534 34 66.3631 34C67.0678 34 67.7066 34.1534 68.2795 34.4601C68.8523 34.7643 69.3073 35.2142 69.6445 35.8099C69.9816 36.403 70.1502 37.1331 70.1502 38ZM67.9753 38C67.9753 37.5336 67.9132 37.1407 67.789 36.8213C67.6673 36.4994 67.4861 36.256 67.2452 36.0913C67.007 35.924 66.7129 35.8403 66.3631 35.8403C66.0133 35.8403 65.718 35.924 65.4772 36.0913C65.2389 36.256 65.0577 36.4994 64.9335 36.8213C64.8118 37.1407 64.7509 37.5336 64.7509 38C64.7509 38.4664 64.8118 38.8606 64.9335 39.1825C65.0577 39.5019 65.2389 39.7452 65.4772 39.9125C65.718 40.0773 66.0133 40.1597 66.3631 40.1597C66.7129 40.1597 67.007 40.0773 67.2452 39.9125C67.4861 39.7452 67.6673 39.5019 67.789 39.1825C67.9132 38.8606 67.9753 38.4664 67.9753 38Z" fill="black"/>
<rect x="156.75" y="32.75" width="38.5" height="10.5" rx="3.25" stroke="#737373" stroke-width="1.5"/>
<rect x="204" y="32" width="40" height="12" rx="4" fill="#171717"/>
<rect x="252" y="33" width="12" height="2" rx="1" fill="#737373"/>
<rect x="252" y="37" width="12" height="2" rx="1" fill="#737373"/>
<rect x="252" y="41" width="12" height="2" rx="1" fill="#737373"/>
<g opacity="0.5">
<rect width="256" height="84" transform="translate(24 52)" fill="#FAFAFA"/>
</g>
</svg>
