<svg width="144" height="80" viewBox="0 0 144 80" fill="none" xmlns="http://www.w3.org/2000/svg">
<rect width="144" height="80" rx="4" fill="white"/>
<path d="M12 14C12 12.8954 12.8954 12 14 12H130C131.105 12 132 12.8954 132 14V26H12V14Z" fill="#F5F5F5"/>
<path d="M20 21.1818V16.8182H21.1847V20.2273H22.9489V21.1818H20Z" fill="#171717"/>
<path d="M27.4851 19C27.4851 19.4858 27.3906 19.8956 27.2017 20.2294C27.0128 20.5618 26.7578 20.8139 26.4368 20.9858C26.1158 21.1563 25.7578 21.2415 25.3629 21.2415C24.9652 21.2415 24.6058 21.1556 24.2848 20.9837C23.9652 20.8104 23.7109 20.5576 23.522 20.2252C23.3345 19.8914 23.2408 19.483 23.2408 19C23.2408 18.5142 23.3345 18.1051 23.522 17.7727C23.7109 17.4389 23.9652 17.1868 24.2848 17.0164C24.6058 16.8445 24.9652 16.7585 25.3629 16.7585C25.7578 16.7585 26.1158 16.8445 26.4368 17.0164C26.7578 17.1868 27.0128 17.4389 27.2017 17.7727C27.3906 18.1051 27.4851 18.5142 27.4851 19ZM26.2663 19C26.2663 18.7387 26.2315 18.5185 26.1619 18.3395C26.0938 18.1591 25.9922 18.0227 25.8572 17.9304C25.7237 17.8367 25.5589 17.7898 25.3629 17.7898C25.1669 17.7898 25.0014 17.8367 24.8665 17.9304C24.733 18.0227 24.6314 18.1591 24.5618 18.3395C24.4936 18.5185 24.4595 18.7387 24.4595 19C24.4595 19.2614 24.4936 19.4823 24.5618 19.6627C24.6314 19.8416 24.733 19.978 24.8665 20.0718C25.0014 20.1641 25.1669 20.2102 25.3629 20.2102C25.5589 20.2102 25.7237 20.1641 25.8572 20.0718C25.9922 19.978 26.0938 19.8416 26.1619 19.6627C26.2315 19.4823 26.2663 19.2614 26.2663 19Z" fill="#171717"/>
<path d="M30.867 18.2585C30.8485 18.1833 30.8194 18.1172 30.7797 18.0604C30.7399 18.0022 30.6902 17.9531 30.6305 17.9134C30.5723 17.8722 30.5041 17.8416 30.426 17.8218C30.3493 17.8004 30.2647 17.7898 30.1724 17.7898C29.9735 17.7898 29.8038 17.8374 29.6632 17.9326C29.524 18.0277 29.4174 18.1648 29.3436 18.3438C29.2711 18.5227 29.2349 18.7387 29.2349 18.9915C29.2349 19.2472 29.2697 19.4659 29.3393 19.6477C29.4089 19.8296 29.5126 19.9688 29.6504 20.0654C29.7882 20.162 29.9593 20.2102 30.1639 20.2102C30.3443 20.2102 30.4941 20.184 30.6135 20.1314C30.7342 20.0789 30.8244 20.0043 30.8841 19.9077C30.9437 19.8111 30.9735 19.6975 30.9735 19.5668L31.1781 19.5881H30.1809V18.7443H32.1156V19.3495C32.1156 19.7472 32.0311 20.0874 31.862 20.3701C31.6944 20.6513 31.4629 20.8672 31.1674 21.0178C30.8734 21.1669 30.536 21.2415 30.1554 21.2415C29.7306 21.2415 29.3578 21.1513 29.0368 20.9709C28.7157 20.7905 28.465 20.5334 28.2846 20.1996C28.1056 19.8658 28.0162 19.4688 28.0162 19.0085C28.0162 18.6477 28.0708 18.3281 28.1802 18.0497C28.291 17.7713 28.4444 17.5362 28.6404 17.3445C28.8365 17.1513 29.063 17.0057 29.3201 16.9077C29.5772 16.8083 29.8528 16.7585 30.1468 16.7585C30.4054 16.7585 30.6454 16.7955 30.867 16.8693C31.09 16.9418 31.2868 17.0455 31.4572 17.1804C31.6291 17.3139 31.7676 17.4723 31.8727 17.6556C31.9778 17.8388 32.0417 18.0398 32.0645 18.2585H30.867Z" fill="#171717"/>
<path d="M36.8952 19C36.8952 19.4858 36.8008 19.8956 36.6119 20.2294C36.4229 20.5618 36.168 20.8139 35.8469 20.9858C35.5259 21.1563 35.168 21.2415 34.7731 21.2415C34.3754 21.2415 34.016 21.1556 33.695 20.9837C33.3754 20.8104 33.1211 20.5576 32.9322 20.2252C32.7447 19.8914 32.6509 19.483 32.6509 19C32.6509 18.5142 32.7447 18.1051 32.9322 17.7727C33.1211 17.4389 33.3754 17.1868 33.695 17.0164C34.016 16.8445 34.3754 16.7585 34.7731 16.7585C35.168 16.7585 35.5259 16.8445 35.8469 17.0164C36.168 17.1868 36.4229 17.4389 36.6119 17.7727C36.8008 18.1051 36.8952 18.5142 36.8952 19ZM35.6765 19C35.6765 18.7387 35.6417 18.5185 35.5721 18.3395C35.5039 18.1591 35.4023 18.0227 35.2674 17.9304C35.1339 17.8367 34.9691 17.7898 34.7731 17.7898C34.5771 17.7898 34.4116 17.8367 34.2766 17.9304C34.1431 18.0227 34.0415 18.1591 33.9719 18.3395C33.9038 18.5185 33.8697 18.7387 33.8697 19C33.8697 19.2614 33.9038 19.4823 33.9719 19.6627C34.0415 19.8416 34.1431 19.978 34.2766 20.0718C34.4116 20.1641 34.5771 20.2102 34.7731 20.2102C34.9691 20.2102 35.1339 20.1641 35.2674 20.0718C35.4023 19.978 35.5039 19.8416 35.5721 19.6627C35.6417 19.4823 35.6765 19.2614 35.6765 19Z" fill="#171717"/>
<rect x="48.8945" y="18" width="7.77619" height="2" rx="1" fill="#737373"/>
<rect x="60.6719" y="18" width="7.77619" height="2" rx="1" fill="#737373"/>
<rect x="72.4453" y="18" width="7.77619" height="2" rx="1" fill="#737373"/>
<rect x="84.2227" y="18" width="7.77619" height="2" rx="1" fill="#737373"/>
<rect x="104" y="16" width="20" height="6" rx="2" fill="#171717"/>
<g opacity="0.5">
<rect width="120" height="42" transform="translate(12 26)" fill="#FAFAFA"/>
</g>
</svg>