<svg width="304" height="160" viewBox="0 0 304 160" fill="none" xmlns="http://www.w3.org/2000/svg">
<rect width="304" height="160" rx="8" fill="white"/>
<path d="M24 28C24 25.7909 25.7909 24 28 24H276C278.209 24 280 25.7909 280 28V60H24V28Z" fill="#F5F5F5"/>
<path d="M136.925 39.8935V32.1065H139.039V38.1901H142.187V39.8935H136.925Z" fill="black"/>
<path d="M150.282 36C150.282 36.8669 150.114 37.5982 149.777 38.1939C149.439 38.7871 148.984 39.237 148.411 39.5437C147.839 39.8479 147.2 40 146.495 40C145.785 40 145.144 39.8466 144.571 39.5399C144.001 39.2307 143.547 38.7795 143.21 38.1863C142.875 37.5906 142.708 36.8619 142.708 36C142.708 35.1331 142.875 34.403 143.21 33.8099C143.547 33.2142 144.001 32.7643 144.571 32.4601C145.144 32.1534 145.785 32 146.495 32C147.2 32 147.839 32.1534 148.411 32.4601C148.984 32.7643 149.439 33.2142 149.777 33.8099C150.114 34.403 150.282 35.1331 150.282 36ZM148.107 36C148.107 35.5336 148.045 35.1407 147.921 34.8213C147.799 34.4994 147.618 34.256 147.377 34.0913C147.139 33.924 146.845 33.8403 146.495 33.8403C146.145 33.8403 145.85 33.924 145.609 34.0913C145.371 34.256 145.19 34.4994 145.065 34.8213C144.944 35.1407 144.883 35.5336 144.883 36C144.883 36.4664 144.944 36.8606 145.065 37.1825C145.19 37.5019 145.371 37.7452 145.609 37.9125C145.85 38.0773 146.145 38.1597 146.495 38.1597C146.845 38.1597 147.139 38.0773 147.377 37.9125C147.618 37.7452 147.799 37.5019 147.921 37.1825C148.045 36.8606 148.107 36.4664 148.107 36Z" fill="black"/>
<path d="M156.317 34.6768C156.284 34.5425 156.232 34.4246 156.161 34.3232C156.091 34.2193 156.002 34.1318 155.895 34.0608C155.791 33.9873 155.67 33.9328 155.53 33.8973C155.393 33.8593 155.243 33.8403 155.078 33.8403C154.723 33.8403 154.42 33.9252 154.169 34.0951C153.921 34.2649 153.731 34.5095 153.599 34.8289C153.469 35.1483 153.405 35.5336 153.405 35.9848C153.405 36.4411 153.467 36.8314 153.591 37.1559C153.715 37.4804 153.9 37.7288 154.146 37.9011C154.392 38.0735 154.698 38.1597 155.063 38.1597C155.385 38.1597 155.652 38.1128 155.865 38.019C156.08 37.9252 156.241 37.7921 156.348 37.6198C156.454 37.4474 156.508 37.2446 156.508 37.0114L156.873 37.0494H155.093V35.5437H158.546V36.6236C158.546 37.3333 158.395 37.9404 158.093 38.4449C157.794 38.9468 157.381 39.3321 156.854 39.6008C156.329 39.8669 155.727 40 155.047 40C154.29 40 153.624 39.839 153.051 39.5171C152.478 39.1952 152.031 38.7364 151.709 38.1407C151.39 37.545 151.23 36.8365 151.23 36.0152C151.23 35.3714 151.328 34.801 151.523 34.3042C151.72 33.8074 151.994 33.3878 152.344 33.0456C152.694 32.7009 153.098 32.4411 153.557 32.2662C154.016 32.0887 154.508 32 155.032 32C155.494 32 155.922 32.0659 156.317 32.1977C156.715 32.327 157.066 32.512 157.371 32.7529C157.677 32.9911 157.924 33.2738 158.112 33.6008C158.3 33.9278 158.414 34.2864 158.454 34.6768H156.317Z" fill="black"/>
<path d="M167.075 36C167.075 36.8669 166.906 37.5982 166.569 38.1939C166.232 38.7871 165.777 39.237 165.204 39.5437C164.631 39.8479 163.993 40 163.288 40C162.578 40 161.937 39.8466 161.364 39.5399C160.794 39.2307 160.34 38.7795 160.003 38.1863C159.668 37.5906 159.501 36.8619 159.501 36C159.501 35.1331 159.668 34.403 160.003 33.8099C160.34 33.2142 160.794 32.7643 161.364 32.4601C161.937 32.1534 162.578 32 163.288 32C163.993 32 164.631 32.1534 165.204 32.4601C165.777 32.7643 166.232 33.2142 166.569 33.8099C166.906 34.403 167.075 35.1331 167.075 36ZM164.9 36C164.9 35.5336 164.838 35.1407 164.714 34.8213C164.592 34.4994 164.411 34.256 164.17 34.0913C163.932 33.924 163.638 33.8403 163.288 33.8403C162.938 33.8403 162.643 33.924 162.402 34.0913C162.164 34.256 161.982 34.4994 161.858 34.8213C161.737 35.1407 161.676 35.5336 161.676 36C161.676 36.4664 161.737 36.8606 161.858 37.1825C161.982 37.5019 162.164 37.7452 162.402 37.9125C162.643 38.0773 162.938 38.1597 163.288 38.1597C163.638 38.1597 163.932 38.0773 164.17 37.9125C164.411 37.7452 164.592 37.5019 164.714 37.1825C164.838 36.8606 164.9 36.4664 164.9 36Z" fill="black"/>
<rect x="80" y="48" width="17.3333" height="4" rx="2" fill="#737373"/>
<rect x="105.333" y="48" width="17.3333" height="4" rx="2" fill="#737373"/>
<rect x="130.667" y="48" width="17.3333" height="4" rx="2" fill="#737373"/>
<rect x="156" y="48" width="17.3333" height="4" rx="2" fill="#737373"/>
<rect x="181.333" y="48" width="17.3333" height="4" rx="2" fill="#737373"/>
<rect x="206.667" y="48" width="17.3333" height="4" rx="2" fill="#737373"/>
<g opacity="0.5">
<rect width="256" height="76" transform="translate(24 60)" fill="#FAFAFA"/>
</g>
</svg>
