<svg width="304" height="160" viewBox="0 0 304 160" fill="none" xmlns="http://www.w3.org/2000/svg">
<rect width="304" height="160" rx="8" fill="white"/>
<rect x="24" y="36" width="32" height="32" rx="16" fill="#737373"/>
<rect x="24" y="80" width="53.3333" height="8" rx="2" fill="#737373"/>
<rect x="24" y="96" width="61.3333" height="4" rx="2" fill="#737373"/>
<rect x="24" y="104" width="69.3333" height="4" rx="2" fill="#737373"/>
<rect x="24" y="112" width="61.3333" height="4" rx="2" fill="#737373"/>
<rect x="24" y="120" width="53.3333" height="4" rx="2" fill="#737373"/>
<rect x="113.333" y="36" width="32" height="32" rx="16" fill="#737373"/>
<rect x="113.333" y="80" width="53.3333" height="8" rx="2" fill="#737373"/>
<rect x="113.333" y="96" width="61.3333" height="4" rx="2" fill="#737373"/>
<rect x="113.333" y="104" width="69.3333" height="4" rx="2" fill="#737373"/>
<rect x="113.333" y="112" width="61.3333" height="4" rx="2" fill="#737373"/>
<rect x="113.333" y="120" width="53.3333" height="4" rx="2" fill="#737373"/>
<rect x="202.667" y="36" width="32" height="32" rx="16" fill="#737373"/>
<rect x="202.667" y="80" width="53.3333" height="8" rx="2" fill="#737373"/>
<rect x="202.667" y="96" width="61.3333" height="4" rx="2" fill="#737373"/>
<rect x="202.667" y="104" width="69.3333" height="4" rx="2" fill="#737373"/>
<rect x="202.667" y="112" width="61.3333" height="4" rx="2" fill="#737373"/>
<rect x="202.667" y="120" width="53.3333" height="4" rx="2" fill="#737373"/>
</svg>
