<svg width="304" height="160" viewBox="0 0 304 160" fill="none" xmlns="http://www.w3.org/2000/svg">
<rect width="304" height="160" rx="8" fill="white"/>
<rect x="24" y="24" width="110" height="34" rx="4" fill="#404040"/>
<rect x="32" y="30" width="70" height="6" rx="2" fill="#F5F5F5"/>
<rect x="32" y="40" width="94" height="4" rx="2" fill="#525252"/>
<rect x="32" y="48" width="78" height="4" rx="2" fill="#525252"/>
<rect x="24" y="63" width="110" height="34" rx="4" fill="#FAFAFA"/>
<rect x="32" y="69" width="70" height="6" rx="2" fill="#737373"/>
<rect x="32" y="79" width="94" height="4" rx="2" fill="#737373"/>
<rect x="32" y="87" width="78" height="4" rx="2" fill="#737373"/>
<rect x="24" y="102" width="110" height="34" rx="4" fill="#FAFAFA"/>
<rect x="32" y="108" width="70" height="6" rx="2" fill="#737373"/>
<rect x="32" y="118" width="94" height="4" rx="2" fill="#737373"/>
<rect x="32" y="126" width="78" height="4" rx="2" fill="#737373"/>
<rect x="158" y="24" width="122" height="112" rx="8" fill="#737373"/>
<path d="M227.001 68.3334H211.001C207.777 68.3334 206.001 70.1094 206.001 73.3334V86.6668C206.001 89.8908 207.777 91.6668 211.001 91.6668H227.001C230.225 91.6668 232.001 89.8908 232.001 86.6668V73.3334C232.001 70.1094 230.225 68.3334 227.001 68.3334ZM211.001 70.3334H227.001C229.104 70.3334 230.001 71.2308 230.001 73.3334V83.0001L223.948 76.9467C223.428 76.4267 222.574 76.4267 222.054 76.9467L215.468 83.5333C215.214 83.7866 214.788 83.7866 214.534 83.5333L213.281 82.2801C212.761 81.76 211.908 81.76 211.388 82.2801L208.001 85.6668V73.3334C208.001 71.2308 208.898 70.3334 211.001 70.3334ZM212.001 76.0001C212.001 75.0801 212.74 74.3334 213.658 74.3334H213.672C214.59 74.3334 215.336 75.0801 215.336 76.0001C215.336 76.9201 214.592 77.6668 213.672 77.6668C212.753 77.6668 212.001 76.9201 212.001 76.0001Z" fill="white"/>
</svg>
