<svg width="304" height="160" viewBox="0 0 304 160" fill="none" xmlns="http://www.w3.org/2000/svg">
<rect width="304" height="160" rx="8" fill="white"/>
<rect x="128" y="24" width="48" height="12" rx="4" fill="#737373"/>
<rect x="120" y="42" width="64" height="4" rx="2" fill="#737373"/>
<rect x="128" y="50" width="48" height="4" rx="2" fill="#737373"/>
<rect x="24" y="66" width="58" height="70" rx="8" fill="#737373"/>
<path d="M49.009 83.5C49.009 81.294 50.803 79.5 53.009 79.5C55.215 79.5 57.009 81.294 57.009 83.5C57.009 85.706 55.215 87.5 53.009 87.5C50.803 87.5 49.009 85.706 49.009 83.5ZM55 89.5H51C46.94 89.5 45.5 92.473 45.5 95.019C45.5 97.296 46.7111 98.5 49.0031 98.5H56.9969C59.2889 98.5 60.5 97.296 60.5 95.019C60.5 92.473 59.06 89.5 55 89.5Z" fill="white"/>
<rect x="40" y="113" width="26" height="4" rx="2" fill="#737373"/>
<rect x="44" y="121" width="18" height="4" rx="2" fill="#737373"/>
<rect x="90" y="66" width="58" height="70" rx="8" fill="#737373"/>
<path d="M115.009 95.5C115.009 93.294 116.803 91.5 119.009 91.5C121.215 91.5 123.009 93.294 123.009 95.5C123.009 97.706 121.215 99.5 119.009 99.5C116.803 99.5 115.009 97.706 115.009 95.5ZM121 101.5H117C112.94 101.5 111.5 104.473 111.5 107.019C111.5 109.296 112.711 110.5 115.003 110.5H122.997C125.289 110.5 126.5 109.296 126.5 107.019C126.5 104.473 125.06 101.5 121 101.5Z" fill="white"/>
<rect x="156" y="66" width="58" height="70" rx="8" fill="#737373"/>
<path d="M181.009 95.5C181.009 93.294 182.803 91.5 185.009 91.5C187.215 91.5 189.009 93.294 189.009 95.5C189.009 97.706 187.215 99.5 185.009 99.5C182.803 99.5 181.009 97.706 181.009 95.5ZM187 101.5H183C178.94 101.5 177.5 104.473 177.5 107.019C177.5 109.296 178.711 110.5 181.003 110.5H188.997C191.289 110.5 192.5 109.296 192.5 107.019C192.5 104.473 191.06 101.5 187 101.5Z" fill="white"/>
<rect x="222" y="66" width="58" height="70" rx="8" fill="#737373"/>
<path d="M247.009 95.5C247.009 93.294 248.803 91.5 251.009 91.5C253.215 91.5 255.009 93.294 255.009 95.5C255.009 97.706 253.215 99.5 251.009 99.5C248.803 99.5 247.009 97.706 247.009 95.5ZM253 101.5H249C244.94 101.5 243.5 104.473 243.5 107.019C243.5 109.296 244.711 110.5 247.003 110.5H254.997C257.289 110.5 258.5 109.296 258.5 107.019C258.5 104.473 257.06 101.5 253 101.5Z" fill="white"/>
</svg>
