<svg width="304" height="160" viewBox="0 0 304 160" fill="none" xmlns="http://www.w3.org/2000/svg">
<rect width="304" height="160" rx="8" fill="white"/>
<rect x="24" y="24" width="64" height="12" rx="4" fill="#737373"/>
<rect x="24" y="40" width="48" height="12" rx="4" fill="#737373"/>
<rect x="24" y="60" width="72" height="4" rx="2" fill="#737373"/>
<rect x="24" y="68" width="56" height="4" rx="2" fill="#737373"/>
<rect x="24" y="80" width="40" height="12" rx="4" fill="#171717"/>
<rect x="132" y="24" width="66" height="32" rx="8" fill="#737373"/>
<path d="M162.339 36.3334C162.339 34.8627 163.535 33.6667 165.006 33.6667C166.477 33.6667 167.673 34.8627 167.673 36.3334C167.673 37.804 166.477 39 165.006 39C163.535 39 162.339 37.804 162.339 36.3334ZM166.333 40.3334H163.667C160.96 40.3334 160 42.3154 160 44.0127C160 45.5307 160.807 46.3334 162.335 46.3334H167.665C169.193 46.3334 170 45.5307 170 44.0127C170 42.3154 169.04 40.3334 166.333 40.3334Z" fill="white"/>
<rect x="132" y="62" width="66" height="4" rx="2" fill="#737373"/>
<rect x="132" y="70" width="50" height="4" rx="2" fill="#737373"/>
<rect x="214" y="24" width="66" height="32" rx="8" fill="#737373"/>
<path d="M244.339 36.3334C244.339 34.8627 245.535 33.6667 247.006 33.6667C248.477 33.6667 249.673 34.8627 249.673 36.3334C249.673 37.804 248.477 39 247.006 39C245.535 39 244.339 37.804 244.339 36.3334ZM248.333 40.3334H245.667C242.96 40.3334 242 42.3154 242 44.0127C242 45.5307 242.807 46.3334 244.335 46.3334H249.665C251.193 46.3334 252 45.5307 252 44.0127C252 42.3154 251.04 40.3334 248.333 40.3334Z" fill="white"/>
<rect x="214" y="62" width="66" height="4" rx="2" fill="#737373"/>
<rect x="214" y="70" width="50" height="4" rx="2" fill="#737373"/>
<rect x="132" y="86" width="66" height="32" rx="8" fill="#737373"/>
<path d="M162.339 98.3334C162.339 96.8627 163.535 95.6667 165.006 95.6667C166.477 95.6667 167.673 96.8627 167.673 98.3334C167.673 99.804 166.477 101 165.006 101C163.535 101 162.339 99.804 162.339 98.3334ZM166.333 102.333H163.667C160.96 102.333 160 104.315 160 106.013C160 107.531 160.807 108.333 162.335 108.333H167.665C169.193 108.333 170 107.531 170 106.013C170 104.315 169.04 102.333 166.333 102.333Z" fill="white"/>
<rect x="132" y="124" width="66" height="4" rx="2" fill="#737373"/>
<rect x="132" y="132" width="50" height="4" rx="2" fill="#737373"/>
<rect x="214" y="86" width="66" height="32" rx="8" fill="#737373"/>
<path d="M244.339 98.3334C244.339 96.8627 245.535 95.6667 247.006 95.6667C248.477 95.6667 249.673 96.8627 249.673 98.3334C249.673 99.804 248.477 101 247.006 101C245.535 101 244.339 99.804 244.339 98.3334ZM248.333 102.333H245.667C242.96 102.333 242 104.315 242 106.013C242 107.531 242.807 108.333 244.335 108.333H249.665C251.193 108.333 252 107.531 252 106.013C252 104.315 251.04 102.333 248.333 102.333Z" fill="white"/>
<rect x="214" y="124" width="66" height="4" rx="2" fill="#737373"/>
<rect x="214" y="132" width="50" height="4" rx="2" fill="#737373"/>
</svg>
