<svg width="304" height="160" viewBox="0 0 304 160" fill="none" xmlns="http://www.w3.org/2000/svg">
<rect width="304" height="160" rx="8" fill="white"/>
<rect x="24" y="24" width="54" height="48" rx="8" fill="#737373"/>
<path d="M47.009 42.5C47.009 40.294 48.803 38.5 51.009 38.5C53.215 38.5 55.009 40.294 55.009 42.5C55.009 44.706 53.215 46.5 51.009 46.5C48.803 46.5 47.009 44.706 47.009 42.5ZM53 48.5H49C44.94 48.5 43.5 51.473 43.5 54.019C43.5 56.296 44.7111 57.5 47.0031 57.5H54.9969C57.2889 57.5 58.5 56.296 58.5 54.019C58.5 51.473 57.06 48.5 53 48.5Z" fill="white"/>
<rect x="90" y="26" width="46" height="8" rx="2" fill="#737373"/>
<rect x="90" y="38" width="30" height="8" rx="2" fill="#737373"/>
<rect x="90" y="54" width="46" height="4" rx="2" fill="#737373"/>
<rect x="90" y="62" width="8" height="8" rx="4" fill="#737373"/>
<rect x="102" y="62" width="8" height="8" rx="4" fill="#737373"/>
<rect x="114" y="62" width="8" height="8" rx="4" fill="#737373"/>
<rect x="160" y="24" width="54" height="48" rx="8" fill="#737373"/>
<path d="M183.009 42.5C183.009 40.294 184.803 38.5 187.009 38.5C189.215 38.5 191.009 40.294 191.009 42.5C191.009 44.706 189.215 46.5 187.009 46.5C184.803 46.5 183.009 44.706 183.009 42.5ZM189 48.5H185C180.94 48.5 179.5 51.473 179.5 54.019C179.5 56.296 180.711 57.5 183.003 57.5H190.997C193.289 57.5 194.5 56.296 194.5 54.019C194.5 51.473 193.06 48.5 189 48.5Z" fill="white"/>
<rect x="226" y="26" width="46" height="8" rx="2" fill="#737373"/>
<rect x="226" y="38" width="30" height="8" rx="2" fill="#737373"/>
<rect x="226" y="54" width="46" height="4" rx="2" fill="#737373"/>
<rect x="226" y="62" width="8" height="8" rx="4" fill="#737373"/>
<rect x="238" y="62" width="8" height="8" rx="4" fill="#737373"/>
<rect x="250" y="62" width="8" height="8" rx="4" fill="#737373"/>
<rect x="24" y="88" width="54" height="48" rx="8" fill="#737373"/>
<path d="M47.009 106.5C47.009 104.294 48.803 102.5 51.009 102.5C53.215 102.5 55.009 104.294 55.009 106.5C55.009 108.706 53.215 110.5 51.009 110.5C48.803 110.5 47.009 108.706 47.009 106.5ZM53 112.5H49C44.94 112.5 43.5 115.473 43.5 118.019C43.5 120.296 44.7111 121.5 47.0031 121.5H54.9969C57.2889 121.5 58.5 120.296 58.5 118.019C58.5 115.473 57.06 112.5 53 112.5Z" fill="white"/>
<rect x="90" y="90" width="46" height="8" rx="2" fill="#737373"/>
<rect x="90" y="102" width="30" height="8" rx="2" fill="#737373"/>
<rect x="90" y="118" width="46" height="4" rx="2" fill="#737373"/>
<rect x="90" y="126" width="8" height="8" rx="4" fill="#737373"/>
<rect x="102" y="126" width="8" height="8" rx="4" fill="#737373"/>
<rect x="114" y="126" width="8" height="8" rx="4" fill="#737373"/>
<rect x="160" y="88" width="54" height="48" rx="8" fill="#737373"/>
<path d="M183.009 106.5C183.009 104.294 184.803 102.5 187.009 102.5C189.215 102.5 191.009 104.294 191.009 106.5C191.009 108.706 189.215 110.5 187.009 110.5C184.803 110.5 183.009 108.706 183.009 106.5ZM189 112.5H185C180.94 112.5 179.5 115.473 179.5 118.019C179.5 120.296 180.711 121.5 183.003 121.5H190.997C193.289 121.5 194.5 120.296 194.5 118.019C194.5 115.473 193.06 112.5 189 112.5Z" fill="white"/>
<rect x="226" y="90" width="46" height="8" rx="2" fill="#737373"/>
<rect x="226" y="102" width="30" height="8" rx="2" fill="#737373"/>
<rect x="226" y="118" width="46" height="4" rx="2" fill="#737373"/>
<rect x="226" y="126" width="8" height="8" rx="4" fill="#737373"/>
<rect x="238" y="126" width="8" height="8" rx="4" fill="#737373"/>
<rect x="250" y="126" width="8" height="8" rx="4" fill="#737373"/>
</svg>
