<svg xmlns="http://www.w3.org/2000/svg" width="24" height="24" viewBox="0 0 24 24" fill="none">
  <path d="M18.73 9.05L20.74 9.63H20.73C20.89 9.68 21 9.82 21 9.99C21 10.16 20.89 10.31 20.73 10.35L18.72 10.93C16.87 11.46 15.45 12.88 14.92 14.73L14.35 16.74C14.31 16.9 14.16 17.01 14 17.01C13.84 17.01 13.7 16.9 13.65 16.74L13.08 14.73C12.55 12.88 11.13 11.46 9.27999 10.93L7.27 10.35C7.11 10.3 7 10.16 7 9.99C7 9.82 7.11 9.67 7.27 9.63L9.27999 9.05C11.13 8.52 12.55 7.1 13.08 5.25L13.65 3.24C13.74 2.92 14.27 2.92 14.36 3.24L14.93 5.25C15.46 7.1 16.88 8.52 18.73 9.05Z" fill="currentColor"/>
  <path d="M9.25 16.77L10.32 17.08C10.4 17.11 10.46 17.18 10.46 17.27C10.46 17.36 10.4 17.44 10.32 17.46L9.25 17.77C8.27 18.05 7.51 18.8 7.23 19.79L6.92 20.86C6.89 20.94 6.82 21 6.73 21C6.64 21 6.56 20.94 6.54 20.86L6.23 19.79C5.95 18.81 5.19 18.05 4.21 17.77L3.14 17.46C3.06 17.43 3 17.36 3 17.27C3 17.18 3.06 17.1 3.14 17.08L4.21 16.77C5.19 16.49 5.95 15.74 6.23 14.75L6.54 13.68C6.59 13.51 6.87 13.51 6.92 13.68L7.23 14.75C7.51 15.73 8.27 16.49 9.25 16.77Z" fill="currentColor"/>
</svg>