<svg xmlns="http://www.w3.org/2000/svg" width="16" height="16" viewBox="0 0 16 16" fill="none">
  <path d="M11.4859 8.71859C11.5499 8.98725 11.384 9.25664 11.1147 9.32064C11.0753 9.32997 11.0373 9.33398 10.9986 9.33398C10.7719 9.33398 10.5673 9.17938 10.5126 8.94938C10.2413 7.80205 9.22397 7.00065 8.03931 7.00065C7.23464 7.00065 6.49192 7.38332 6.02059 8.00065H6.49927C6.77527 8.00065 6.99927 8.22465 6.99927 8.50065C6.99927 8.77665 6.77527 9.00065 6.49927 9.00065H4.99927C4.72327 9.00065 4.49927 8.77665 4.49927 8.50065V7.00195C4.49927 6.72595 4.72327 6.50195 4.99927 6.50195C5.27527 6.50195 5.49927 6.72595 5.49927 7.00195V7.08724C6.15327 6.41191 7.06196 6.00065 8.03996 6.00065C9.69062 6.00065 11.1079 7.11859 11.4859 8.71859ZM15.1666 8.00065C15.1666 11.9527 11.9519 15.1673 7.99992 15.1673C4.04792 15.1673 0.833252 11.9527 0.833252 8.00065C0.833252 4.04865 4.04792 0.833984 7.99992 0.833984C11.9519 0.833984 15.1666 4.04865 15.1666 8.00065ZM14.1666 8.00065C14.1666 4.59998 11.4006 1.83398 7.99992 1.83398C4.59925 1.83398 1.83325 4.59998 1.83325 8.00065C1.83325 11.4013 4.59925 14.1673 7.99992 14.1673C11.4006 14.1673 14.1666 11.4013 14.1666 8.00065Z" fill="currentColor"/>
</svg>