<svg width="20" height="20" viewBox="0 0 20 20" fill="none" xmlns="http://www.w3.org/2000/svg">
<path d="M18.125 10C18.125 10.345 17.845 10.625 17.5 10.625H7.34253L10.4425 13.725C10.6867 13.9691 10.6867 14.365 10.4425 14.6092C10.3208 14.7308 10.1608 14.7925 10.0008 14.7925C9.84081 14.7925 9.68079 14.7317 9.55912 14.6092L5.39246 10.4425C5.33496 10.385 5.28923 10.3159 5.25757 10.2393C5.19423 10.0868 5.19423 9.91426 5.25757 9.76176C5.28923 9.68509 5.33496 9.61581 5.39246 9.55831L9.55912 5.39164C9.80329 5.14748 10.1992 5.14748 10.4433 5.39164C10.6875 5.63581 10.6875 6.03167 10.4433 6.27584L7.34334 9.37581H17.5C17.845 9.37498 18.125 9.655 18.125 10ZM2.5 4.375C2.155 4.375 1.875 4.655 1.875 5V15C1.875 15.345 2.155 15.625 2.5 15.625C2.845 15.625 3.125 15.345 3.125 15V5C3.125 4.655 2.845 4.375 2.5 4.375Z" fill="currentColor"/>
</svg>
