<svg xmlns="http://www.w3.org/2000/svg" width="20" height="20" viewBox="0 0 20 20" fill="none">
  <path d="M17.2432 10.2392C17.2115 10.3159 17.1658 10.385 17.1083 10.4425L13.7749 13.7758C13.6533 13.8975 13.4933 13.9591 13.3333 13.9591C13.1733 13.9591 13.0132 13.8983 12.8916 13.7758C12.6474 13.5317 12.6474 13.1358 12.8916 12.8916L15.1582 10.625H3.33325C2.98825 10.625 2.70825 10.345 2.70825 9.99998C2.70825 9.65498 2.98825 9.37498 3.33325 9.37498H15.1574L12.8907 7.10834C12.6466 6.86417 12.6466 6.46831 12.8907 6.22414C13.1349 5.97997 13.5308 5.97997 13.7749 6.22414L17.1083 9.55747C17.1658 9.61497 17.2115 9.68405 17.2432 9.76072C17.3065 9.91405 17.3065 10.0859 17.2432 10.2392Z" fill="currentColor"/>
</svg>