<svg xmlns="http://www.w3.org/2000/svg" width="20" height="20" viewBox="0 0 20 20" fill="none">
  <path d="M14.6875 2.5H5.3125C3.4375 2.5 2.5 3.4375 2.5 5.3125V14.6875C2.5 16.5625 3.4375 17.5 5.3125 17.5H14.6875C16.5625 17.5 17.5 16.5625 17.5 14.6875V5.3125C17.5 3.4375 16.5625 2.5 14.6875 2.5ZM13.125 10.8333C13.125 11.1783 12.845 11.4583 12.5 11.4583C12.155 11.4583 11.875 11.1783 11.875 10.8333V9.0092L7.94169 12.9425C7.82002 13.0642 7.66 13.1258 7.5 13.1258C7.34 13.1258 7.17998 13.065 7.05831 12.9425C6.81414 12.6983 6.81414 12.3025 7.05831 12.0583L10.9916 8.125H9.16667C8.82167 8.125 8.54167 7.845 8.54167 7.5C8.54167 7.155 8.82167 6.875 9.16667 6.875H12.5C12.5817 6.875 12.6626 6.89175 12.7393 6.92342C12.8918 6.98675 13.0134 7.10843 13.0776 7.26176C13.1093 7.33843 13.1258 7.41915 13.1258 7.50081V10.8333H13.125Z" fill="currentColor"/>
</svg>