<svg width="20" height="20" viewBox="0 0 20 20" fill="none" xmlns="http://www.w3.org/2000/svg">
<path d="M14.7432 10.2393C14.7116 10.3159 14.6659 10.385 14.6084 10.4425L10.4417 14.6092C10.32 14.7308 10.16 14.7925 10 14.7925C9.84 14.7925 9.67998 14.7317 9.55831 14.6092C9.31414 14.365 9.31414 13.9691 9.55831 13.725L12.6583 10.625H2.5C2.155 10.625 1.875 10.345 1.875 10C1.875 9.655 2.155 9.375 2.5 9.375H12.6575L9.5575 6.27502C9.31333 6.03086 9.31333 5.635 9.5575 5.39083C9.80166 5.14666 10.1975 5.14666 10.4417 5.39083L14.6084 9.5575C14.6659 9.615 14.7116 9.68408 14.7432 9.76074C14.8066 9.91408 14.8066 10.0859 14.7432 10.2393ZM17.5 4.375C17.155 4.375 16.875 4.655 16.875 5V15C16.875 15.345 17.155 15.625 17.5 15.625C17.845 15.625 18.125 15.345 18.125 15V5C18.125 4.655 17.845 4.375 17.5 4.375Z" fill="currentColor"/>
</svg>
