<svg xmlns="http://www.w3.org/2000/svg" width="16" height="16" viewBox="0 0 16 16" fill="none">
  <path d="M11.75 1.5H4.25C2.47667 1.5 1.5 2.47667 1.5 4.25V11.75C1.5 13.5233 2.47667 14.5 4.25 14.5H11.75C13.5233 14.5 14.5 13.5233 14.5 11.75V4.25C14.5 2.47667 13.5233 1.5 11.75 1.5ZM13.5 11.75C13.5 12.9767 12.9767 13.5 11.75 13.5H4.25C3.02333 13.5 2.5 12.9767 2.5 11.75V4.25C2.5 3.02333 3.02333 2.5 4.25 2.5H11.75C12.9767 2.5 13.5 3.02333 13.5 4.25V11.75ZM10.4613 5.80859C10.4866 5.86993 10.5 5.93467 10.5 6V8.66667C10.5 8.94267 10.276 9.16667 10 9.16667C9.724 9.16667 9.5 8.94267 9.5 8.66667V7.20736L6.35335 10.354C6.25602 10.4513 6.128 10.5007 6 10.5007C5.872 10.5007 5.74398 10.452 5.64665 10.354C5.45131 10.1587 5.45131 9.84198 5.64665 9.64665L8.79329 6.5H7.33333C7.05733 6.5 6.83333 6.276 6.83333 6C6.83333 5.724 7.05733 5.5 7.33333 5.5H10C10.0653 5.5 10.1301 5.5134 10.1914 5.53874C10.3134 5.5894 10.4106 5.68659 10.4613 5.80859Z" fill="currentColor"/>
</svg>