<svg xmlns="http://www.w3.org/2000/svg" width="16" height="16" viewBox="0 0 16 16" fill="none">
  <path d="M13.8332 8.0005C13.8332 8.2765 13.6092 8.5005 13.3332 8.5005H3.87394L5.68725 10.3138C5.88258 10.5092 5.88258 10.8258 5.68725 11.0212C5.58992 11.1185 5.4619 11.1678 5.3339 11.1678C5.2059 11.1678 5.07788 11.1192 4.98055 11.0212L2.31388 8.35451C2.26788 8.30851 2.2313 8.25324 2.20597 8.19191C2.1553 8.06991 2.1553 7.93191 2.20597 7.80991C2.2313 7.74858 2.26788 7.69315 2.31388 7.64715L4.98055 4.98048C5.17588 4.78515 5.49257 4.78515 5.6879 4.98048C5.88324 5.17582 5.88324 5.49251 5.6879 5.68784L3.87459 7.50115H13.3332C13.6092 7.50049 13.8332 7.7245 13.8332 8.0005Z" fill="currentColor"/>
</svg>