<svg width="21" height="20" viewBox="0 0 21 20" fill="none" xmlns="http://www.w3.org/2000/svg">
<g id="Icons / ban">
<path id="Vector" d="M10.3333 1.04175C5.39333 1.04175 1.375 5.06008 1.375 10.0001C1.375 14.9401 5.39333 18.9584 10.3333 18.9584C15.2733 18.9584 19.2917 14.9401 19.2917 10.0001C19.2917 5.06008 15.2733 1.04175 10.3333 1.04175ZM10.3333 2.29175C12.2342 2.29175 13.9724 2.98677 15.3183 4.13094L4.46501 14.985C3.32001 13.6392 2.625 11.9009 2.625 10.0001C2.625 5.74925 6.0825 2.29175 10.3333 2.29175ZM10.3333 17.7084C8.4325 17.7084 6.69422 17.0134 5.34839 15.8692L16.2017 5.01514C17.3467 6.36097 18.0417 8.09925 18.0417 10.0001C18.0417 14.2509 14.5842 17.7084 10.3333 17.7084Z" fill="currentColor"/>
</g>
</svg>
