<svg xmlns="http://www.w3.org/2000/svg" width="28" height="28" viewBox="0 0 28 28" fill="none">
  <path d="M25.375 23.3338C25.375 23.8168 24.983 24.2088 24.5 24.2088H5.25C3.60617 24.2088 2.625 23.2277 2.625 21.5838V4.66716C2.625 4.18415 3.017 3.79215 3.5 3.79215C3.983 3.79215 4.375 4.18415 4.375 4.66716V21.5838C4.375 22.271 4.56283 22.4588 5.25 22.4588H24.5C24.983 22.4588 25.375 22.8508 25.375 23.3338ZM14.2917 14.0005V18.6672C14.2917 19.1502 14.6837 19.5422 15.1667 19.5422C15.6497 19.5422 16.0417 19.1502 16.0417 18.6672V14.0005C16.0417 13.5175 15.6497 13.1255 15.1667 13.1255C14.6837 13.1255 14.2917 13.5175 14.2917 14.0005ZM21 10.7922C20.517 10.7922 20.125 11.1842 20.125 11.6672V18.6672C20.125 19.1502 20.517 19.5422 21 19.5422C21.483 19.5422 21.875 19.1502 21.875 18.6672V11.6672C21.875 11.1842 21.483 10.7922 21 10.7922ZM9.33333 19.5422C9.81633 19.5422 10.2083 19.1502 10.2083 18.6672V16.3338C10.2083 15.8508 9.81633 15.4588 9.33333 15.4588C8.85033 15.4588 8.45833 15.8508 8.45833 16.3338V18.6672C8.45833 19.1502 8.85033 19.5422 9.33333 19.5422ZM9.33333 10.3839C9.55733 10.3839 9.78133 10.2987 9.95166 10.1272L11.9058 8.17299C12.1252 7.95366 12.5195 7.95366 12.74 8.17299L14.0817 9.51469C14.994 10.4282 16.4792 10.427 17.3892 9.51469L20.125 6.77889V8.16716C20.125 8.65016 20.517 9.04216 21 9.04216C21.483 9.04216 21.875 8.65016 21.875 8.16716V4.66716C21.875 4.55282 21.8517 4.43967 21.8073 4.33234C21.7186 4.11884 21.5483 3.9485 21.3348 3.85866C21.2275 3.81433 21.1143 3.79102 21 3.79102H17.5C17.017 3.79102 16.625 4.18302 16.625 4.66602C16.625 5.14902 17.017 5.54102 17.5 5.54102H18.8872L16.1513 8.27681C15.925 8.50315 15.5435 8.50198 15.3183 8.27681L13.9767 6.93512C13.0643 6.02279 11.5803 6.02279 10.668 6.93512L8.71383 8.88934C8.37199 9.23118 8.37199 9.78538 8.71383 10.1272C8.88533 10.2987 9.10933 10.3839 9.33333 10.3839Z" fill="currentColor"/>
</svg>