<svg xmlns="http://www.w3.org/2000/svg" width="28" height="28" viewBox="0 0 28 28" fill="none">
  <path d="M20.5625 3.5H7.4375C4.8125 3.5 3.5 4.8125 3.5 7.4375V20.5625C3.5 23.1875 4.8125 24.5 7.4375 24.5H20.5625C23.1875 24.5 24.5 23.1875 24.5 20.5625V7.4375C24.5 4.8125 23.1875 3.5 20.5625 3.5ZM10.2083 19.8333C10.2083 20.3163 9.81633 20.7083 9.33333 20.7083C8.85033 20.7083 8.45833 20.3163 8.45833 19.8333V18.0833C8.45833 17.6003 8.85033 17.2083 9.33333 17.2083C9.81633 17.2083 10.2083 17.6003 10.2083 18.0833V19.8333ZM14.875 19.8333C14.875 20.3163 14.483 20.7083 14 20.7083C13.517 20.7083 13.125 20.3163 13.125 19.8333V16.3333C13.125 15.8503 13.517 15.4583 14 15.4583C14.483 15.4583 14.875 15.8503 14.875 16.3333V19.8333ZM19.5417 19.8333C19.5417 20.3163 19.1497 20.7083 18.6667 20.7083C18.1837 20.7083 17.7917 20.3163 17.7917 19.8333V14C17.7917 13.517 18.1837 13.125 18.6667 13.125C19.1497 13.125 19.5417 13.517 19.5417 14V19.8333ZM19.5417 10.7333C19.5417 11.2163 19.1497 11.6083 18.6667 11.6083C18.1837 11.6083 17.7917 11.2163 17.7917 10.7333V10.2784L15.6928 12.377C15.0325 13.0385 13.8775 13.0374 13.2171 12.377L11.725 10.8851L9.9517 12.6584C9.78137 12.8288 9.55733 12.9151 9.33333 12.9151C9.10933 12.9151 8.8853 12.8299 8.71497 12.6584C8.37313 12.3166 8.37313 11.7624 8.71497 11.4206L10.4883 9.64722C11.1708 8.96472 12.2815 8.96588 12.964 9.64722L14.4562 11.1394L16.555 9.04053H16.1C15.617 9.04053 15.225 8.64853 15.225 8.16553C15.225 7.68253 15.617 7.29053 16.1 7.29053H18.6667C18.781 7.29053 18.8942 7.3137 19.0015 7.35803C19.215 7.4467 19.3854 7.61704 19.474 7.83171C19.5184 7.93904 19.5417 8.05233 19.5417 8.16667V10.7333Z" fill="currentColor"/>
</svg>