<svg width="20" height="20" viewBox="0 0 20 20" fill="none" xmlns="http://www.w3.org/2000/svg">
<path d="M16.5834 16.1825C16.6259 16.435 16.4308 16.6658 16.175 16.6658H3.82504C3.56837 16.6658 3.37333 16.435 3.41666 16.1825L3.75668 14.1658C3.77668 14.0458 3.88086 13.9574 4.00336 13.9574H15.9975C16.1192 13.9574 16.2233 14.0458 16.2442 14.1658L16.5834 16.1825ZM16.2417 6.27411L14.1583 7.53245C13.7817 7.75995 13.2925 7.64994 13.05 7.28244L10.6842 3.69995C10.3608 3.20995 9.64168 3.20911 9.31668 3.69911L6.95004 7.27412C6.70837 7.64912 6.21668 7.75744 5.83335 7.52411L3.75836 6.27411C3.14169 5.89911 2.37503 6.43245 2.5167 7.14078L3.7225 12.5124C3.74833 12.6266 3.84919 12.7074 3.96669 12.7074H16.0333C16.15 12.7074 16.2517 12.6266 16.2775 12.5124L17.4833 7.14078C17.625 6.43245 16.8583 5.89911 16.2417 6.27411Z" fill="currentColor"/>
</svg>
