<svg xmlns="http://www.w3.org/2000/svg" width="20" height="20" viewBox="0 0 20 20" fill="none">
  <path d="M17.696 8.44824C16.6018 6.61574 14.1459 3.54163 10.0001 3.54163C5.85422 3.54163 3.3983 6.61574 2.30413 8.44824C1.73163 9.40491 1.73163 10.5942 2.30413 11.5517C3.3983 13.3842 5.85422 16.4583 10.0001 16.4583C14.1459 16.4583 16.6018 13.3842 17.696 11.5517C18.2685 10.5942 18.2685 9.40574 17.696 8.44824ZM16.6234 10.91C15.6651 12.515 13.5292 15.2083 10.0001 15.2083C6.47089 15.2083 4.33506 12.5158 3.37672 10.91C3.04172 10.3483 3.04172 9.65078 3.37672 9.08911C4.33506 7.48411 6.47089 4.79081 10.0001 4.79081C13.5292 4.79081 15.6651 7.48328 16.6234 9.08911C16.9592 9.65161 16.9592 10.3483 16.6234 10.91ZM10.0001 6.45829C8.04672 6.45829 6.45839 8.04746 6.45839 9.99996C6.45839 11.9525 8.04672 13.5416 10.0001 13.5416C11.9534 13.5416 13.5417 11.9525 13.5417 9.99996C13.5417 8.04746 11.9534 6.45829 10.0001 6.45829ZM10.0001 12.2916C8.73589 12.2916 7.70839 11.2641 7.70839 9.99996C7.70839 8.73579 8.73589 7.70829 10.0001 7.70829C11.2642 7.70829 12.2917 8.73579 12.2917 9.99996C12.2917 11.2641 11.2642 12.2916 10.0001 12.2916Z" fill="currentColor"/>
</svg>