<svg xmlns="http://www.w3.org/2000/svg" width="16" height="16" viewBox="0 0 16 16" fill="none">
  <path d="M12.3327 13.8337H3.66602C2.72668 13.8337 2.16602 13.273 2.16602 12.3337V10.3337C2.16602 9.39433 2.72668 8.83366 3.66602 8.83366H12.3327C13.272 8.83366 13.8327 9.39433 13.8327 10.3337V12.3337C13.8327 13.273 13.272 13.8337 12.3327 13.8337ZM3.66602 9.83366C3.27335 9.83366 3.16602 9.94099 3.16602 10.3337V12.3337C3.16602 12.7263 3.27335 12.8337 3.66602 12.8337H12.3327C12.7253 12.8337 12.8327 12.7263 12.8327 12.3337V10.3337C12.8327 9.94099 12.7253 9.83366 12.3327 9.83366H3.66602ZM5.66602 7.16699H3.66602C2.72668 7.16699 2.16602 6.60633 2.16602 5.66699V3.66699C2.16602 2.72766 2.72668 2.16699 3.66602 2.16699H5.66602C6.60535 2.16699 7.16602 2.72766 7.16602 3.66699V5.66699C7.16602 6.60633 6.60535 7.16699 5.66602 7.16699ZM3.66602 3.16699C3.27335 3.16699 3.16602 3.27433 3.16602 3.66699V5.66699C3.16602 6.05966 3.27335 6.16699 3.66602 6.16699H5.66602C6.05868 6.16699 6.16602 6.05966 6.16602 5.66699V3.66699C6.16602 3.27433 6.05868 3.16699 5.66602 3.16699H3.66602ZM12.3327 7.16699H10.3327C9.39335 7.16699 8.83268 6.60633 8.83268 5.66699V3.66699C8.83268 2.72766 9.39335 2.16699 10.3327 2.16699H12.3327C13.272 2.16699 13.8327 2.72766 13.8327 3.66699V5.66699C13.8327 6.60633 13.272 7.16699 12.3327 7.16699ZM10.3327 3.16699C9.94002 3.16699 9.83268 3.27433 9.83268 3.66699V5.66699C9.83268 6.05966 9.94002 6.16699 10.3327 6.16699H12.3327C12.7253 6.16699 12.8327 6.05966 12.8327 5.66699V3.66699C12.8327 3.27433 12.7253 3.16699 12.3327 3.16699H10.3327Z" fill="currentColor"/>
</svg>