<svg xmlns="http://www.w3.org/2000/svg" width="16" height="16" viewBox="0 0 16 16" fill="none">
  <path d="M14.784 3.34334C14.4507 2.90067 13.9153 2.62535 13.192 2.52335L6.15129 1.5367C5.42795 1.4347 4.84067 1.55136 4.39933 1.88403C3.95667 2.21736 3.68068 2.75268 3.57935 3.47468L3.48128 4.16544H3.11198C1.64331 4.16544 0.833984 4.9741 0.833984 6.44343V12.2221C0.833984 13.6914 1.64331 14.5001 3.11198 14.5001H10.224C11.4966 14.5001 12.272 13.8907 12.4574 12.7733C13.4967 12.6893 14.1586 12.0147 14.3313 10.8153L15.1306 5.09545C15.2339 4.37478 15.1167 3.78534 14.784 3.34334ZM3.11198 5.16544H10.224C11.132 5.16544 11.5027 5.53543 11.5027 6.44343V9.83015L9.22062 7.54809C8.79262 7.12076 8.09796 7.12142 7.67196 7.54809L4.88997 10.3302L4.47933 9.91869C4.05133 9.49069 3.35666 9.49203 2.93066 9.91869L1.83398 11.0154V6.44343C1.83398 5.53543 2.20465 5.16544 3.11198 5.16544ZM10.224 13.5001H3.11198C2.27465 13.5001 1.89865 13.1794 1.84465 12.418L3.63729 10.6254C3.67329 10.5901 3.73464 10.5894 3.77197 10.6254L4.32935 11.1827C4.63868 11.4927 5.14333 11.4914 5.45133 11.1827L8.37931 8.25479C8.41665 8.21879 8.478 8.21946 8.514 8.25479L11.5027 11.2434V12.2221C11.5027 13.1301 11.132 13.5001 10.224 13.5001ZM14.1406 4.95613L13.3413 10.6754C13.2446 11.346 12.9914 11.684 12.5027 11.7673V6.44343C12.5027 4.9741 11.6933 4.16544 10.224 4.16544H4.49064L4.56869 3.61547C4.63268 3.1648 4.77732 2.85069 5.00065 2.68269C5.22198 2.51536 5.56265 2.4621 6.01131 2.52677L13.0527 3.51342C13.5033 3.57742 13.8166 3.72207 13.9846 3.94474C14.1526 4.16674 14.2046 4.5068 14.1406 4.95613ZM3.67863 7.66674C3.67863 7.29874 3.97398 7.00007 4.34131 7.00007H4.34668C4.71401 7.00007 5.01196 7.29874 5.01196 7.66674C5.01196 8.03474 4.71401 8.33341 4.34668 8.33341C3.98001 8.33341 3.67863 8.03474 3.67863 7.66674Z" fill="currentColor"/>
</svg>