<svg xmlns="http://www.w3.org/2000/svg" viewBox="0 0 28 28" fill="none">
  <path d="M3.85006 12.5417H12.7749C12.9686 12.5417 13.125 12.6981 13.125 12.8917V22.9833C13.125 23.177 12.9686 23.3334 12.7749 23.3334H7C4.66667 23.3334 3.5 22.1667 3.5 19.8334V12.8917C3.5 12.6981 3.65639 12.5417 3.85006 12.5417ZM21 4.66669H7C4.66667 4.66669 3.5 5.83335 3.5 8.16669V10.4416C3.5 10.6353 3.65639 10.7917 3.85006 10.7917H24.1499C24.3436 10.7917 24.5 10.6353 24.5 10.4416V8.16669C24.5 5.83335 23.3333 4.66669 21 4.66669ZM14.875 12.8917V22.9833C14.875 23.177 15.0314 23.3334 15.2251 23.3334H21C23.3333 23.3334 24.5 22.1667 24.5 19.8334V12.8917C24.5 12.6981 24.3436 12.5417 24.1499 12.5417H15.2251C15.0314 12.5417 14.875 12.6981 14.875 12.8917Z" fill="currentColor"/>
</svg>