<svg xmlns="http://www.w3.org/2000/svg" width="28" height="28" viewBox="0 0 28 28" fill="none">
  <path d="M21 3.79102H7C4.179 3.79102 2.625 5.34502 2.625 8.16602V19.8327C2.625 22.6537 4.179 24.2077 7 24.2077H21C23.821 24.2077 25.375 22.6537 25.375 19.8327V8.16602C25.375 5.34502 23.821 3.79102 21 3.79102ZM7 5.54102H21C22.8398 5.54102 23.625 6.32618 23.625 8.16602V10.791H4.375V8.16602C4.375 6.32618 5.16017 5.54102 7 5.54102ZM4.375 19.8327V12.541H13.125V22.4577H7C5.16017 22.4577 4.375 21.6725 4.375 19.8327ZM21 22.4577H14.875V12.541H23.625V19.8327C23.625 21.6725 22.8398 22.4577 21 22.4577Z" fill="currentColor"/>
</svg>