<svg xmlns="http://www.w3.org/2000/svg" width="16" height="16" viewBox="0 0 16 16" fill="none">
  <path d="M9.99967 8.66667H5.99967C5.63101 8.66667 5.33301 8.368 5.33301 8C5.33301 7.632 5.63101 7.33333 5.99967 7.33333H9.99967C10.3683 7.33333 10.6663 7.632 10.6663 8C10.6663 8.368 10.3683 8.66667 9.99967 8.66667ZM14.6663 8C14.6663 5.79467 12.8723 4 10.6663 4H9.33301C8.96434 4 8.66634 4.29867 8.66634 4.66667C8.66634 5.03467 8.96434 5.33333 9.33301 5.33333H10.6663C12.137 5.33333 13.333 6.52933 13.333 8C13.333 9.47067 12.137 10.6667 10.6663 10.6667H9.33301C8.96434 10.6667 8.66634 10.9653 8.66634 11.3333C8.66634 11.7013 8.96434 12 9.33301 12H10.6663C12.8723 12 14.6663 10.2053 14.6663 8ZM7.33301 11.3333C7.33301 10.9653 7.03501 10.6667 6.66634 10.6667H5.33301C3.86234 10.6667 2.66634 9.47067 2.66634 8C2.66634 6.52933 3.86234 5.33333 5.33301 5.33333H6.66634C7.03501 5.33333 7.33301 5.03467 7.33301 4.66667C7.33301 4.29867 7.03501 4 6.66634 4H5.33301C3.12701 4 1.33301 5.79467 1.33301 8C1.33301 10.2053 3.12701 12 5.33301 12H6.66634C7.03501 12 7.33301 11.7013 7.33301 11.3333Z" fill="currentColor"/>
</svg>