<svg width="24" height="24" viewBox="0 0 24 24" fill="none" xmlns="http://www.w3.org/2000/svg">
<path d="M17.5645 14.2959C17.3735 14.2959 17.1814 14.2229 17.0354 14.0779C16.7424 13.7859 16.7404 13.3109 17.0334 13.0169L19.0005 11.0389C19.8085 10.2409 20.2495 9.17088 20.2495 8.02288C20.2495 6.87688 19.8064 5.80286 19.0024 4.99786C17.3384 3.33286 14.6284 3.33286 12.9624 4.99786L10.9956 6.97488C10.7036 7.26888 10.2286 7.26987 9.93457 6.97787C9.64157 6.68587 9.6394 6.21086 9.9314 5.91686L11.9004 3.93887C14.1534 1.68687 17.8135 1.68886 20.0625 3.93786C21.1505 5.02486 21.7495 6.47588 21.7495 8.02288C21.7495 9.57488 21.1495 11.0229 20.0605 12.1009L18.0974 14.0749C17.9494 14.2229 17.7575 14.2959 17.5645 14.2959ZM12.0986 20.0629L14.0774 18.0949C14.3704 17.8029 14.3726 17.3279 14.0796 17.0339C13.7876 16.7399 13.3126 16.7399 13.0186 17.0309L11.0396 19.0009C9.37555 20.6659 6.66551 20.6659 4.99951 19.0009C3.33451 17.3359 3.33454 14.6269 4.99854 12.9629L6.97754 10.9949C7.27054 10.7029 7.27249 10.2279 6.97949 9.93386C6.68749 9.63986 6.21246 9.63987 5.91846 9.93087L3.93945 11.9009C1.68945 14.1509 1.68945 17.8109 3.93945 20.0609C5.06545 21.1859 6.54351 21.7479 8.02051 21.7479C9.49751 21.7479 10.9746 21.1869 12.0986 20.0629ZM9.52954 15.5299L15.5554 9.50488C15.8484 9.21188 15.8484 8.73687 15.5554 8.44387C15.2634 8.15187 14.7886 8.14987 14.4946 8.44387L8.46851 14.4689C8.17551 14.7619 8.17551 15.2369 8.46851 15.5299C8.61451 15.6759 8.80654 15.7499 8.99854 15.7499C9.19054 15.7499 9.38354 15.6769 9.52954 15.5299Z" fill="currentColor"/>
</svg>
