<svg xmlns="http://www.w3.org/2000/svg" width="40" height="40" viewBox="0 0 40 40" fill="none">
  <rect width="40" height="40" rx="12" fill="#171717"/>
  <path d="M16.0667 21.9668L15.8127 24.9375C15.779 25.3331 15.7449 25.729 15.7101 26.1272L15.6579 26.7401L15.5001 28.4668C15.4523 28.4675 15.4038 28.4679 15.3556 28.4686C14.599 28.4783 13.8738 28.4668 13.8738 28.4668C13.8738 28.4668 14.2053 24.1349 14.3627 21.9668H16.0667Z" fill="#E6E7E8"/>
  <path d="M27.7118 11.127C27.6392 12.0555 27.5703 12.9755 27.4944 13.8951C27.4184 14.8177 27.3355 15.7395 27.2559 16.6614C27.1762 17.5736 27.0966 18.4855 27.017 19.3977C26.881 20.9433 26.8421 22.5518 26.4533 24.0595C26.1921 25.0714 25.731 26.0547 24.9825 26.784C23.931 27.8081 22.4714 28.1947 21.0525 28.354C20.6199 28.4025 16.257 28.4584 16.2566 28.4618L16.3936 26.7388H17.3892C18.7921 26.7388 20.3321 26.7862 21.5747 26.4681C22.574 26.2125 23.471 25.5721 24.077 24.7373C25.3103 23.0381 25.1251 20.6618 25.2996 18.6714C25.3803 17.7495 25.4588 16.827 25.5392 15.9051C25.6188 14.9929 25.6951 14.0803 25.7796 13.1688C25.8418 12.4936 25.9151 11.8199 25.9844 11.1273H27.7118V11.127Z" fill="#E6E7E8"/>
  <path d="M25.2183 11.6122C25.1098 12.8111 24.8575 15.5074 24.8127 16.0129C24.7601 16.6152 24.7031 17.2159 24.6479 17.8174C24.5924 18.4129 24.5372 19.0078 24.482 19.6026C24.4264 20.1974 24.3838 20.7941 24.3124 21.387C24.2224 22.1359 24.0642 22.8752 23.7164 23.5592C23.3131 24.3518 22.715 24.9844 21.8809 25.4026C21.2694 25.7092 20.6127 25.8752 19.929 25.9515C19.1483 26.0378 18.3661 26.0396 17.5831 26.0337C16.9294 26.0281 16.4179 25.4718 16.4646 24.8229L16.4664 24.7989L16.7553 21.4148C16.7613 21.3459 16.7068 21.287 16.6379 21.287H14.3572L14.4805 19.6437H17.6531C18.1061 19.6444 18.4731 20.0122 18.4731 20.4652V20.5826C18.4731 20.6029 18.4724 20.6226 18.4701 20.6426C18.4701 20.6466 18.4701 20.6504 18.4694 20.6544L18.1609 24.2648C18.155 24.3337 18.2094 24.3926 18.2783 24.3929C18.5875 24.3937 18.8964 24.3929 19.2061 24.3889C20.049 24.3781 20.8353 24.1811 21.492 23.6633C21.9235 23.3229 22.1953 22.8678 22.3642 22.3652C22.5242 21.8878 22.5935 21.3959 22.6213 20.8941C22.6542 20.3044 22.7272 19.717 22.7816 19.1285C22.8379 18.527 22.8924 17.9252 22.9483 17.3237C23.0035 16.7289 23.0561 16.1341 23.115 15.5392C23.139 15.2926 23.2587 14.0774 23.3683 12.977C23.3753 12.9081 23.3209 12.8481 23.2516 12.8481H20.7457C20.6809 12.8481 20.6283 12.7955 20.6283 12.73V11.2385C20.6283 11.1737 20.6809 11.1211 20.7457 11.1211H24.772C25.035 11.1229 25.2409 11.3492 25.2175 11.6122H25.2183Z" fill="#FDB515"/>
</svg>