<svg width="21" height="20" viewBox="0 0 21 20" fill="none" xmlns="http://www.w3.org/2000/svg">
<path d="M10.0423 9.72839V14.1667C10.0423 14.5117 10.3223 14.7917 10.6673 14.7917C11.0123 14.7917 11.2923 14.5117 11.2923 14.1667V9.72839C13.1773 9.42589 14.6257 7.80167 14.6257 5.83333C14.6257 3.65083 12.8498 1.875 10.6673 1.875C8.48482 1.875 6.70898 3.65083 6.70898 5.83333C6.70898 7.80167 8.15732 9.42673 10.0423 9.72839ZM10.6673 3.125C12.1607 3.125 13.3757 4.34 13.3757 5.83333C13.3757 7.32667 12.1607 8.54167 10.6673 8.54167C9.17398 8.54167 7.95898 7.32667 7.95898 5.83333C7.95898 4.34 9.17398 3.125 10.6673 3.125ZM17.1257 15C17.1257 16.7817 14.349 18.125 10.6673 18.125C6.98565 18.125 4.20898 16.7817 4.20898 15C4.20898 13.8675 5.28482 12.9042 7.15899 12.3584C7.49065 12.2634 7.83732 12.4517 7.93399 12.7834C8.03065 13.1151 7.83982 13.4617 7.50899 13.5583C6.09316 13.9708 5.45898 14.58 5.45898 15C5.45898 15.7642 7.48815 16.875 10.6673 16.875C13.8465 16.875 15.8757 15.7642 15.8757 15C15.8757 14.58 15.2415 13.9708 13.8256 13.5583C13.4948 13.4617 13.304 13.1151 13.4007 12.7834C13.4973 12.4517 13.8457 12.2634 14.1757 12.3584C16.0498 12.9042 17.1257 13.8675 17.1257 15Z" fill="currentColor"/>
</svg>
