<svg xmlns="http://www.w3.org/2000/svg" width="16" height="16" viewBox="0 0 16 16" fill="none">
  <path d="M5.9987 3.99967C5.9987 3.63167 6.29736 3.33301 6.66536 3.33301H13.9987C14.3667 3.33301 14.6654 3.63167 14.6654 3.99967C14.6654 4.36767 14.3667 4.66634 13.9987 4.66634H6.66536C6.29736 4.66634 5.9987 4.36767 5.9987 3.99967ZM13.9987 7.33301H1.9987C1.6307 7.33301 1.33203 7.63167 1.33203 7.99967C1.33203 8.36767 1.6307 8.66634 1.9987 8.66634H13.9987C14.3667 8.66634 14.6654 8.36767 14.6654 7.99967C14.6654 7.63167 14.3667 7.33301 13.9987 7.33301ZM9.33203 11.333H1.9987C1.6307 11.333 1.33203 11.6317 1.33203 11.9997C1.33203 12.3677 1.6307 12.6663 1.9987 12.6663H9.33203C9.70003 12.6663 9.9987 12.3677 9.9987 11.9997C9.9987 11.6317 9.70003 11.333 9.33203 11.333Z" fill="currentColor"/>
</svg>