<svg xmlns="http://www.w3.org/2000/svg" width="16" height="16" viewBox="0 0 16 16" fill="none">
  <path d="M8.0131 3.66602C7.46044 3.66602 7.00977 3.21868 7.00977 2.66602C7.00977 2.11335 7.45443 1.66602 8.00643 1.66602H8.0131C8.56577 1.66602 9.0131 2.11335 9.0131 2.66602C9.0131 3.21868 8.56577 3.66602 8.0131 3.66602ZM9.0131 7.99935C9.0131 7.44668 8.56577 6.99935 8.0131 6.99935H8.00643C7.45443 6.99935 7.00977 7.44668 7.00977 7.99935C7.00977 8.55202 7.46044 8.99935 8.0131 8.99935C8.56577 8.99935 9.0131 8.55202 9.0131 7.99935ZM9.0131 13.3327C9.0131 12.78 8.56577 12.3327 8.0131 12.3327H8.00643C7.45443 12.3327 7.00977 12.78 7.00977 13.3327C7.00977 13.8853 7.46044 14.3327 8.0131 14.3327C8.56577 14.3327 9.0131 13.8853 9.0131 13.3327Z" fill="currentColor"/>
</svg>