<svg xmlns="http://www.w3.org/2000/svg" width="16" height="16" viewBox="0 0 16 16" fill="none">
  <path d="M14.5 4.82056C14.5007 4.32989 14.3101 3.86856 13.9627 3.52189L12.4774 2.03662C12.13 1.68996 11.67 1.4986 11.1787 1.49927C10.688 1.49994 10.2273 1.69189 9.882 2.03923L1.646 10.3132C1.552 10.4072 1.5 10.5339 1.5 10.6659V13.9993C1.5 14.2753 1.724 14.4993 2 14.4993H5.33333C5.46533 14.4993 5.5927 14.4466 5.68603 14.3539L13.96 6.11727C14.308 5.77194 14.4993 5.31122 14.5 4.82056ZM5.12663 13.4999H2.5V10.8733L8.49528 4.85059L11.1501 7.50456L5.12663 13.4999ZM13.2547 5.40926L11.8587 6.79924L9.20068 4.14193L10.5907 2.74528C10.748 2.58728 10.9573 2.50059 11.1807 2.49992H11.1813C11.404 2.49992 11.6133 2.58656 11.7713 2.7439L13.2567 4.22925C13.414 4.38725 13.5007 4.59657 13.5007 4.81991C13.5 5.04257 13.4127 5.25193 13.2547 5.40926ZM14.5 13.9999C14.5 14.2759 14.276 14.4999 14 14.4999H9.33333C9.05733 14.4999 8.83333 14.2759 8.83333 13.9999C8.83333 13.7239 9.05733 13.4999 9.33333 13.4999H14C14.276 13.4999 14.5 13.7239 14.5 13.9999Z" fill="currentColor"/>
</svg>