<svg xmlns="http://www.w3.org/2000/svg" width="20" height="20" viewBox="0 0 20 20" fill="none">
  <path d="M15.834 9.16634H10.834V4.16634C10.834 3.70634 10.4607 3.33301 10.0007 3.33301C9.54065 3.33301 9.16732 3.70634 9.16732 4.16634V9.16634H4.16732C3.70732 9.16634 3.33398 9.53967 3.33398 9.99967C3.33398 10.4597 3.70732 10.833 4.16732 10.833H9.16732V15.833C9.16732 16.293 9.54065 16.6663 10.0007 16.6663C10.4607 16.6663 10.834 16.293 10.834 15.833V10.833H15.834C16.294 10.833 16.6673 10.4597 16.6673 9.99967C16.6673 9.53967 16.294 9.16634 15.834 9.16634Z" fill="currentColor"/>
</svg>