<svg xmlns="http://www.w3.org/2000/svg" width="20" height="21" viewBox="0 0 20 21" fill="none">
  <path d="M14.6833 2.54443H5.31667C3.44167 2.54443 2.5 3.47776 2.5 5.35276V14.7278C2.5 16.6028 3.44167 17.5444 5.31667 17.5444H14.6833C16.5667 17.5444 17.5 16.6028 17.5 14.7278V5.35276C17.5 3.47776 16.5667 2.54443 14.6833 2.54443ZM12.9167 10.6694H10.625V12.9611C10.625 13.3028 10.3417 13.5861 10 13.5861C9.65833 13.5861 9.375 13.3028 9.375 12.9611V10.6694H7.08333C6.74167 10.6694 6.45833 10.3861 6.45833 10.0444C6.45833 9.70277 6.74167 9.41943 7.08333 9.41943H9.375V7.12777C9.375 6.7861 9.65833 6.50277 10 6.50277C10.3417 6.50277 10.625 6.7861 10.625 7.12777V9.41943H12.9167C13.2583 9.41943 13.5417 9.70277 13.5417 10.0444C13.5417 10.3861 13.2583 10.6694 12.9167 10.6694Z" fill="currentColor"/>
</svg>