<svg width="16" height="16" viewBox="0 0 16 16" fill="none" xmlns="http://www.w3.org/2000/svg">
<g id="Icons / receipt-list">
<path id="Vector" d="M8.00002 14.4993C7.61602 14.4993 7.23206 14.3533 6.93939 14.0607L5.59271 12.7147C5.41671 12.54 5.13666 12.5207 4.93866 12.6687L4.03339 13.348C3.67739 13.6147 3.2087 13.6567 2.81203 13.458C2.41403 13.2593 2.16669 12.8593 2.16669 12.4147V4C2.16669 2.388 3.05469 1.5 4.66669 1.5H11.3334C12.9454 1.5 13.8334 2.388 13.8334 4V12.414C13.8334 12.8587 13.586 13.2587 13.188 13.4573C12.7913 13.656 12.3227 13.614 11.9667 13.3473L11.0606 12.6673C10.8633 12.5193 10.582 12.5387 10.4073 12.714L9.06065 14.06C8.76798 14.3533 8.38402 14.4993 8.00002 14.4993ZM5.23733 11.5707C5.62466 11.5707 6.01065 11.7187 6.29999 12.0073L7.64667 13.354C7.83533 13.5427 8.16469 13.5427 8.35402 13.354L9.70071 12.008C10.2254 11.4833 11.07 11.4247 11.6607 11.8687L12.5673 12.5487C12.6393 12.6033 12.7067 12.5813 12.742 12.5647C12.776 12.5473 12.834 12.5053 12.834 12.4153V4C12.834 2.94867 12.3853 2.5 11.334 2.5H4.66734C3.616 2.5 3.16734 2.94867 3.16734 4V12.414C3.16734 12.504 3.22538 12.546 3.25938 12.5633C3.29471 12.5807 3.36135 12.602 3.43402 12.5473L4.34003 11.8673C4.60536 11.6687 4.92199 11.5707 5.23733 11.5707ZM11.1667 6C11.1667 5.724 10.9427 5.5 10.6667 5.5H7.33335C7.05735 5.5 6.83335 5.724 6.83335 6C6.83335 6.276 7.05735 6.5 7.33335 6.5H10.6667C10.9427 6.5 11.1667 6.276 11.1667 6ZM11.1667 8.66667C11.1667 8.39067 10.9427 8.16667 10.6667 8.16667H7.33335C7.05735 8.16667 6.83335 8.39067 6.83335 8.66667C6.83335 8.94267 7.05735 9.16667 7.33335 9.16667H10.6667C10.9427 9.16667 11.1667 8.94267 11.1667 8.66667ZM5.33335 5.5C5.05735 5.5 4.83335 5.724 4.83335 6C4.83335 6.276 5.05735 6.5 5.33335 6.5C5.60935 6.5 5.83335 6.276 5.83335 6C5.83335 5.724 5.60935 5.5 5.33335 5.5ZM5.33335 8.16667C5.05735 8.16667 4.83335 8.39067 4.83335 8.66667C4.83335 8.94267 5.05735 9.16667 5.33335 9.16667C5.60935 9.16667 5.83335 8.94267 5.83335 8.66667C5.83335 8.39067 5.60935 8.16667 5.33335 8.16667Z" fill="#707070"/>
</g>
</svg>
