<svg width="16" height="16" viewBox="0 0 16 16" fill="none" xmlns="http://www.w3.org/2000/svg">
<g id="Icons Bold / receipt-list">
<path id="Vector" d="M11.3332 2H4.6665C3.33317 2 2.6665 2.66667 2.6665 4V12.414C2.6665 12.9633 3.29382 13.2767 3.73315 12.9473L4.63916 12.268C5.03716 11.9693 5.59453 12.0093 5.94653 12.3607L7.29248 13.7067C7.68315 14.0973 8.31654 14.0973 8.70654 13.7067L10.0525 12.3607C10.4045 12.0087 10.9619 11.9693 11.3599 12.268L12.2659 12.9473C12.7052 13.2767 13.3325 12.9633 13.3325 12.414V4C13.3332 2.66667 12.6665 2 11.3332 2ZM5.33317 9.16667C5.05717 9.16667 4.83317 8.94267 4.83317 8.66667C4.83317 8.39067 5.05717 8.16667 5.33317 8.16667C5.60917 8.16667 5.83317 8.39067 5.83317 8.66667C5.83317 8.94267 5.60917 9.16667 5.33317 9.16667ZM5.33317 6.5C5.05717 6.5 4.83317 6.276 4.83317 6C4.83317 5.724 5.05717 5.5 5.33317 5.5C5.60917 5.5 5.83317 5.724 5.83317 6C5.83317 6.276 5.60917 6.5 5.33317 6.5ZM10.6665 9.16667H7.33317C7.05717 9.16667 6.83317 8.94267 6.83317 8.66667C6.83317 8.39067 7.05717 8.16667 7.33317 8.16667H10.6665C10.9425 8.16667 11.1665 8.39067 11.1665 8.66667C11.1665 8.94267 10.9425 9.16667 10.6665 9.16667ZM10.6665 6.5H7.33317C7.05717 6.5 6.83317 6.276 6.83317 6C6.83317 5.724 7.05717 5.5 7.33317 5.5H10.6665C10.9425 5.5 11.1665 5.724 11.1665 6C11.1665 6.276 10.9425 6.5 10.6665 6.5Z" fill="#171717"/>
</g>
</svg>
