<svg xmlns="http://www.w3.org/2000/svg" width="16" height="17" viewBox="0 0 16 17" fill="none">
  <path d="M2.5 8.37795C2.5 8.88061 2.6167 9.3652 2.84603 9.81854C2.97136 10.0652 2.87198 10.3659 2.62598 10.4906C2.55398 10.5272 2.47597 10.5446 2.40063 10.5446C2.21797 10.5446 2.04202 10.4447 1.95402 10.2707C1.65735 9.68469 1.5 9.02995 1.5 8.37795C1.5 5.92461 3.21333 4.21128 5.66667 4.21128H10.126L9.646 3.7313C9.45066 3.53596 9.45066 3.21927 9.646 3.02394C9.84133 2.82861 10.158 2.82861 10.3534 3.02394L11.6867 4.35727C11.7327 4.40327 11.7693 4.45854 11.7947 4.51987C11.8453 4.64187 11.8453 4.77987 11.7947 4.90187C11.7693 4.9632 11.7327 5.01863 11.6867 5.06463L10.3534 6.39796C10.256 6.4953 10.128 6.54461 10 6.54461C9.872 6.54461 9.74398 6.49597 9.64665 6.39796C9.45131 6.20263 9.45131 5.88594 9.64665 5.69061L10.1266 5.21063H5.66732C3.47932 5.21129 2.5 6.80195 2.5 8.37795ZM14.046 6.4852C13.9213 6.2392 13.6207 6.13932 13.374 6.26532C13.128 6.38998 13.0286 6.69069 13.154 6.93735C13.3833 7.39069 13.5 7.87528 13.5 8.37795C13.5 9.95395 12.5207 11.5446 10.3333 11.5446H5.87402L6.354 11.0646C6.54934 10.8693 6.54934 10.5526 6.354 10.3573C6.15867 10.1619 5.84198 10.1619 5.64665 10.3573L4.31331 11.6906C4.11798 11.8859 4.11798 12.2026 4.31331 12.398L5.64665 13.7313C5.74398 13.8286 5.872 13.8779 6 13.8779C6.128 13.8779 6.25602 13.8293 6.35335 13.7313C6.54869 13.536 6.54869 13.2193 6.35335 13.0239L5.87337 12.544H10.3327C12.786 12.544 14.4993 10.8306 14.4993 8.37729C14.5 7.72596 14.3433 7.0712 14.046 6.4852Z" fill="currentColor"/>
</svg>