<svg xmlns="http://www.w3.org/2000/svg" width="24" height="24" viewBox="0 0 24 24" fill="none">
  <path d="M12 8.25095C9.93202 8.25095 8.25001 9.93295 8.25001 12.0009C8.25001 14.0689 9.93202 15.7509 12 15.7509C14.068 15.7509 15.75 14.0689 15.75 12.0009C15.75 9.93295 14.068 8.25095 12 8.25095ZM12 14.2509C10.759 14.2509 9.75001 13.2419 9.75001 12.0009C9.75001 10.7599 10.759 9.75095 12 9.75095C13.241 9.75095 14.25 10.7599 14.25 12.0009C14.25 13.2419 13.241 14.2509 12 14.2509ZM21.208 13.9539C20.514 13.5519 20.082 12.8039 20.081 12.0009C20.08 11.1999 20.509 10.453 21.212 10.046C21.727 9.74696 21.903 9.08393 21.605 8.56793L19.933 5.68195C19.635 5.16695 18.972 4.98996 18.456 5.28696C17.757 5.68996 16.888 5.68996 16.187 5.28296C15.496 4.88196 15.066 4.13695 15.066 3.33795C15.066 2.73895 14.578 2.25195 13.979 2.25195H10.024C9.424 2.25195 8.93703 2.73895 8.93703 3.33795C8.93703 4.13695 8.50701 4.88194 7.81401 5.28494C7.11501 5.68994 6.24702 5.69093 5.54802 5.28793C5.03102 4.98993 4.36903 5.16795 4.07103 5.68295L2.39702 8.57196C2.09902 9.08696 2.276 9.74893 2.796 10.0509C3.489 10.4519 3.92102 11.1989 3.92302 11.9999C3.92502 12.8019 3.49501 13.5509 2.79301 13.9579C2.54301 14.1029 2.36302 14.3359 2.28902 14.6159C2.21502 14.8949 2.25303 15.186 2.39803 15.437L4.06902 18.321C4.36702 18.837 5.03002 19.0159 5.54802 18.7169C6.24702 18.3139 7.11402 18.315 7.80302 18.714L7.80501 18.7149C7.80801 18.7169 7.81102 18.7189 7.81502 18.7209C8.50602 19.1219 8.93501 19.8669 8.93401 20.6669C8.93401 21.2659 9.421 21.753 10.02 21.753H13.979C14.578 21.753 15.065 21.2659 15.065 20.6679C15.065 19.8679 15.495 19.1229 16.189 18.7199C16.887 18.3149 17.755 18.313 18.455 18.7169C18.971 19.0149 19.633 18.8379 19.932 18.3229L21.606 15.434C21.903 14.917 21.726 14.2539 21.208 13.9539ZM18.831 17.2279C17.741 16.7529 16.476 16.818 15.434 17.421C14.401 18.02 13.719 19.0789 13.587 20.2509H10.41C10.28 19.0789 9.596 18.018 8.563 17.42C7.523 16.817 6.25602 16.7529 5.16902 17.2279L3.89302 15.0249C4.84802 14.3219 5.425 13.194 5.42101 11.994C5.418 10.802 4.84201 9.68194 3.89201 8.97894L5.16902 6.77493C6.25702 7.24893 7.52402 7.18493 8.56602 6.58093C9.59802 5.98293 10.28 4.92295 10.412 3.75195H13.587C13.718 4.92395 14.401 5.98295 15.436 6.58295C16.475 7.18595 17.742 7.24994 18.831 6.77594L20.108 8.97894C19.155 9.68094 18.579 10.8069 18.581 12.0049C18.582 13.1989 19.158 14.3209 20.109 15.0259L18.831 17.2279Z" fill="currentColor"/>
</svg>