<svg xmlns="http://www.w3.org/2000/svg" width="24" height="24" viewBox="0 0 24 24" fill="none">
  <path d="M10.27 21.0009C10.27 21.6909 9.71002 22.2509 9.02002 22.2509C8.33102 22.2509 7.76501 21.6909 7.76501 21.0009C7.76501 20.3109 8.32001 19.7509 9.01001 19.7509H9.02002C9.71002 19.7509 10.27 20.3109 10.27 21.0009ZM17.02 19.7509H17.01C16.32 19.7509 15.765 20.3109 15.765 21.0009C15.765 21.6909 16.33 22.2509 17.02 22.2509C17.71 22.2509 18.27 21.6909 18.27 21.0009C18.27 20.3109 17.71 19.7509 17.02 19.7509ZM21.705 8.49295L20.691 14.659C20.428 16.105 19.774 17.7509 17 17.7509H8.73401C7.37501 17.7509 6.20396 16.736 6.01196 15.39L4.50195 4.82495C4.41395 4.21295 3.88301 3.75195 3.26501 3.75195H3C2.586 3.75195 2.25 3.41595 2.25 3.00195C2.25 2.58795 2.586 2.25195 3 2.25195H3.26599C4.62499 2.25195 5.79604 3.26695 5.98804 4.61295L6.07996 5.25195H19C19.818 5.25195 20.5881 5.61194 21.1121 6.23994C21.6351 6.86694 21.852 7.68895 21.705 8.49295ZM19.213 14.4039L19.3199 13.7509H13C12.586 13.7509 12.25 13.4149 12.25 13.0009C12.25 12.5869 12.586 12.2509 13 12.2509H19.567L20.2271 8.23694C20.2961 7.85894 20.198 7.48495 19.959 7.19995C19.72 6.91495 19.371 6.75095 18.999 6.75095H6.29297L7.49695 15.1779C7.58495 15.7899 8.11601 16.2509 8.73401 16.2509H17C18.597 16.2509 18.986 15.6549 19.213 14.4039Z" fill="currentColor"/>
</svg>