<svg xmlns="http://www.w3.org/2000/svg" width="16" height="16" viewBox="0 0 16 16" fill="none">
  <path d="M8 15.1667C7.48733 15.1667 7.01803 14.9313 6.71069 14.522L5.71134 13.1887C5.59601 13.036 5.41334 12.9447 5.22201 12.9447H4.22201C2.46667 12.9447 1.5 11.978 1.5 10.2227V3.55599C1.5 1.80066 2.46667 0.833984 4.22201 0.833984H11.778C13.5333 0.833984 14.5 1.80066 14.5 3.55599V10.2227C14.5 11.978 13.5333 12.9447 11.778 12.9447H10.778C10.5867 12.9447 10.4033 13.036 10.2887 13.1893L9.28866 14.522C8.98199 14.9313 8.51267 15.1667 8 15.1667ZM4.22201 1.83333C3.01467 1.83333 2.5 2.34801 2.5 3.55534V10.222C2.5 11.4293 3.01467 11.944 4.22201 11.944H5.22201C5.72601 11.944 6.20798 12.1847 6.51131 12.588L7.51131 13.922C7.74465 14.2327 8.25669 14.2327 8.48869 13.922L9.48934 12.5887C9.79267 12.1853 10.2746 11.944 10.7786 11.944H11.7786C12.986 11.944 13.5007 11.4287 13.5007 10.222V3.55534C13.5007 2.34801 12.986 1.83333 11.7786 1.83333H4.22201ZM9.79736 10.5C9.6547 10.5 9.51131 10.4653 9.37931 10.396L8 9.67L6.62199 10.3953C6.31666 10.5553 5.95533 10.53 5.67733 10.3274C5.39866 10.1247 5.26132 9.78735 5.31999 9.44735L5.58333 7.91069L4.43066 6.78601C4.19133 6.55268 4.10663 6.20932 4.20996 5.89132C4.31329 5.57332 4.58331 5.34601 4.91398 5.29801L6.50667 5.066L7.19596 3.66732C7.34863 3.35798 7.65598 3.16667 8.00065 3.16667C8.34532 3.16667 8.65334 3.35868 8.80534 3.66801L9.49463 5.06665L11.088 5.29867C11.418 5.34667 11.6873 5.57401 11.7913 5.89201C11.8947 6.21001 11.81 6.55333 11.5706 6.78666L10.418 7.91134L10.682 9.44934C10.74 9.78934 10.6026 10.1267 10.324 10.3287C10.166 10.442 9.9827 10.5 9.79736 10.5ZM8 8.65267C8.13933 8.65267 8.27869 8.686 8.40535 8.75334L9.65999 9.41398L9.42065 8.01465C9.37199 7.73132 9.46531 7.44265 9.67131 7.24198L10.6867 6.25065L9.28263 6.04667C8.99863 6.00534 8.75403 5.82668 8.62736 5.56869L8.00065 4.29732L7.37402 5.56934C7.24736 5.82667 7.002 6.00534 6.71867 6.04667L5.3147 6.25065L6.33 7.24198C6.536 7.44198 6.62931 7.73132 6.58065 8.01465L6.34131 9.41333L7.59603 8.75269C7.72136 8.68602 7.86067 8.65267 8 8.65267ZM10.9434 6.288H10.95H10.9434ZM7.90731 4.10933C7.90731 4.11 7.90731 4.11 7.90731 4.10933C7.90731 4.11 7.90731 4.11 7.90731 4.10933Z" fill="currentColor"/>
</svg>