<svg xmlns="http://www.w3.org/2000/svg" width="20" height="20" viewBox="0 0 20 20" fill="none">
  <path d="M17.5 4.375H14.5342C13.7833 4.375 13.7517 4.28 13.5458 3.66333L13.3775 3.1575C13.1217 2.39083 12.4075 1.875 11.5992 1.875H8.40083C7.59249 1.875 6.87749 2.39 6.62249 3.1575L6.45416 3.66333C6.24833 4.28083 6.21666 4.375 5.46583 4.375H2.5C2.155 4.375 1.875 4.655 1.875 5C1.875 5.345 2.155 5.625 2.5 5.625H3.58167L4.22084 15.2075C4.34417 17.0617 5.48084 18.125 7.33917 18.125H12.6617C14.5192 18.125 15.6558 17.0617 15.78 15.2075L16.4192 5.625H17.5C17.845 5.625 18.125 5.345 18.125 5C18.125 4.655 17.845 4.375 17.5 4.375ZM7.80833 3.5525C7.89416 3.29667 8.13166 3.125 8.40083 3.125H11.5992C11.8683 3.125 12.1067 3.29667 12.1917 3.5525L12.36 4.05833C12.3967 4.1675 12.4333 4.27333 12.4733 4.375H7.525C7.565 4.2725 7.60249 4.16666 7.63916 4.05833L7.80833 3.5525ZM14.5317 15.1242C14.4525 16.3183 13.8575 16.875 12.6608 16.875H7.33833C6.14167 16.875 5.5475 16.3192 5.4675 15.1242L4.83416 5.625H5.46501C5.56918 5.625 5.65582 5.61417 5.74916 5.6075C5.77749 5.61167 5.80333 5.625 5.83249 5.625H14.1658C14.1958 5.625 14.2208 5.61167 14.2492 5.6075C14.3425 5.61417 14.4292 5.625 14.5333 5.625H15.1642L14.5317 15.1242ZM12.1083 10.4417L10.8833 11.6667L12.1083 12.8917C12.3525 13.1358 12.3525 13.5317 12.1083 13.7758C11.9867 13.8975 11.8267 13.9592 11.6667 13.9592C11.5067 13.9592 11.3467 13.8983 11.225 13.7758L10 12.5508L8.775 13.7758C8.65333 13.8975 8.49333 13.9592 8.33333 13.9592C8.17333 13.9592 8.01333 13.8983 7.89167 13.7758C7.6475 13.5317 7.6475 13.1358 7.89167 12.8917L9.11667 11.6667L7.89167 10.4417C7.6475 10.1975 7.6475 9.80166 7.89167 9.5575C8.13583 9.31333 8.53167 9.31333 8.77584 9.5575L10.0008 10.7825L11.2258 9.5575C11.47 9.31333 11.8658 9.31333 12.11 9.5575C12.3542 9.80166 12.3525 10.1975 12.1083 10.4417Z" fill="currentColor"/>
</svg>