<svg xmlns="http://www.w3.org/2000/svg" width="20" height="20" viewBox="0 0 20 20" fill="none">
  <path d="M18.0055 14.2931L12.4997 3.99625C11.433 2.00125 8.5672 2.00125 7.4997 3.99625L1.99392 14.2931C1.01559 16.1231 2.34396 18.333 4.42312 18.333H15.5763C17.6546 18.333 18.9838 16.1223 18.0055 14.2931ZM9.3747 8.333C9.3747 7.988 9.6547 7.708 9.9997 7.708C10.3447 7.708 10.6247 7.988 10.6247 8.333V11.6663C10.6247 12.0113 10.3447 12.2913 9.9997 12.2913C9.6547 12.2913 9.3747 12.0113 9.3747 11.6663V8.333ZM10.0164 14.9997C9.55638 14.9997 9.17878 14.6263 9.17878 14.1663C9.17878 13.7063 9.54804 13.333 10.008 13.333H10.0164C10.4772 13.333 10.8497 13.7063 10.8497 14.1663C10.8497 14.6263 10.4764 14.9997 10.0164 14.9997Z" fill="currentColor"/>
</svg>