<svg xmlns="http://www.w3.org/2000/svg" width="16" height="16" viewBox="0 0 16 16" fill="none">
  <path d="M12 2.16699H4C2.388 2.16699 1.5 3.10963 1.5 4.82096V9.84635C1.5 11.5577 2.388 12.5003 4 12.5003H12C13.612 12.5003 14.5 11.5577 14.5 9.84635V4.82096C14.5 3.10963 13.612 2.16699 12 2.16699ZM13.5 9.84635C13.5 11.0057 13.0513 11.5003 12 11.5003H4C2.94867 11.5003 2.5 11.0057 2.5 9.84635V4.82096C2.5 3.66163 2.94867 3.16699 4 3.16699H12C13.0513 3.16699 13.5 3.66163 13.5 4.82096V9.84635ZM11.8333 14.0003C11.8333 14.2763 11.6093 14.5003 11.3333 14.5003H4.66667C4.39067 14.5003 4.16667 14.2763 4.16667 14.0003C4.16667 13.7243 4.39067 13.5003 4.66667 13.5003H11.3333C11.6093 13.5003 11.8333 13.7243 11.8333 14.0003Z" fill="currentColor"/>
</svg>