<svg xmlns="http://www.w3.org/2000/svg" width="20" height="20" viewBox="0 0 20 20" fill="none">
  <path d="M2.50079 9.8785C2.47829 9.8785 2.45493 9.87764 2.43243 9.87514C2.0891 9.83764 1.84082 9.52856 1.87915 9.18606C2.18082 6.42106 3.84913 4.04098 6.34163 2.81765C6.5358 2.72265 6.76417 2.7343 6.94751 2.84847C7.13084 2.96264 7.24251 3.16354 7.24251 3.37937V5.92098C7.24251 6.26598 6.96251 6.54598 6.61751 6.54598C6.27251 6.54598 5.99251 6.26598 5.99251 5.92098V4.47017C4.38918 5.58517 3.33829 7.33684 3.12162 9.32267C3.08579 9.64184 2.81579 9.8785 2.50079 9.8785ZM13.6583 17.2735C16.1508 16.0502 17.8191 13.6694 18.1208 10.9052C18.1591 10.5619 17.9109 10.2535 17.5675 10.216C17.2234 10.181 16.9166 10.426 16.8791 10.7693C16.6616 12.7551 15.6117 14.506 14.0084 15.6218V14.171C14.0084 13.826 13.7284 13.546 13.3834 13.546C13.0384 13.546 12.7584 13.826 12.7584 14.171V16.7127C12.7584 16.9285 12.8699 17.1293 13.0533 17.2435C13.1541 17.306 13.2692 17.3377 13.3834 17.3377C13.4775 17.3377 13.5708 17.316 13.6583 17.2735ZM12.9208 5.20768C11.7716 5.20768 10.8375 4.27268 10.8375 3.12435C10.8375 1.97602 11.7716 1.04102 12.9208 1.04102C14.07 1.04102 15.0041 1.97602 15.0041 3.12435C15.0041 4.27268 14.07 5.20768 12.9208 5.20768ZM12.9208 2.29102C12.4608 2.29102 12.0875 2.66518 12.0875 3.12435C12.0875 3.58352 12.4608 3.95768 12.9208 3.95768C13.3808 3.95768 13.7541 3.58352 13.7541 3.12435C13.7541 2.66518 13.3808 2.29102 12.9208 2.29102ZM14.5825 10.6243H11.2508C10.0766 10.6243 9.37498 9.92604 9.37498 8.75688C9.37498 7.40438 10.2125 6.04102 12.0833 6.04102H13.75C15.6208 6.04102 16.4583 7.40521 16.4583 8.75688C16.4583 9.92604 15.7567 10.6243 14.5825 10.6243ZM12.0833 7.29102C10.815 7.29102 10.625 8.20938 10.625 8.75688C10.625 9.23604 10.765 9.37435 11.2508 9.37435H14.5825C15.0683 9.37435 15.2083 9.23604 15.2083 8.75688C15.2083 8.20938 15.0183 7.29102 13.75 7.29102H12.0833ZM6.25415 13.541C5.10498 13.541 4.17082 12.606 4.17082 11.4577C4.17082 10.3093 5.10498 9.37435 6.25415 9.37435C7.40332 9.37435 8.33748 10.3093 8.33748 11.4577C8.33748 12.606 7.40332 13.541 6.25415 13.541ZM6.25415 10.6243C5.79415 10.6243 5.42082 10.9985 5.42082 11.4577C5.42082 11.9168 5.79415 12.291 6.25415 12.291C6.71415 12.291 7.08748 11.9168 7.08748 11.4577C7.08748 10.9985 6.71415 10.6243 6.25415 10.6243ZM7.91583 18.9577H4.58413C3.40996 18.9577 2.70831 18.2594 2.70831 17.0902C2.70831 15.7377 3.54581 14.3743 5.41664 14.3743H7.08331C8.95414 14.3743 9.79165 15.7385 9.79165 17.0902C9.79165 18.2594 9.09 18.9577 7.91583 18.9577ZM5.41664 15.6243C4.14831 15.6243 3.95831 16.5427 3.95831 17.0902C3.95831 17.5694 4.09829 17.7077 4.58413 17.7077H7.91583C8.40166 17.7077 8.54165 17.5694 8.54165 17.0902C8.54165 16.5427 8.35164 15.6243 7.08331 15.6243H5.41664Z" fill="currentColor"/>
</svg>