<svg width="16" height="16" viewBox="0 0 16 16" fill="none" xmlns="http://www.w3.org/2000/svg">
<g id="Icons / user-tag">
<path id="Vector" d="M8 15.1654C7.48733 15.1654 7.01803 14.93 6.71069 14.5207L5.71134 13.1873C5.59601 13.034 5.41334 12.9427 5.22201 12.9427H4.22201C2.46667 12.9427 1.5 11.976 1.5 10.2207V3.55404C1.5 1.7987 2.46667 0.832031 4.22201 0.832031H11.778C13.5333 0.832031 14.5 1.7987 14.5 3.55404V10.2207C14.5 11.976 13.5333 12.9427 11.778 12.9427H10.778C10.5867 12.9427 10.4033 13.0341 10.2887 13.1881L9.28866 14.5214C8.98199 14.9301 8.51267 15.1654 8 15.1654ZM4.22201 1.83203C3.01467 1.83203 2.5 2.3467 2.5 3.55404V10.2207C2.5 11.428 3.01467 11.9427 4.22201 11.9427H5.22201C5.72601 11.9427 6.20798 12.1833 6.51131 12.5867L7.51131 13.92C7.74465 14.2313 8.25669 14.2307 8.48869 13.92L9.48934 12.5867C9.79201 12.1833 10.2746 11.9421 10.7786 11.9421H11.7786C12.986 11.9421 13.5007 11.4274 13.5007 10.2201V3.55339C13.5007 2.34605 12.986 1.83138 11.7786 1.83138H4.22201V1.83203ZM8 6.4987C7.08067 6.4987 6.33333 5.7507 6.33333 4.83203C6.33333 3.91336 7.08067 3.16536 8 3.16536C8.91933 3.16536 9.66667 3.91336 9.66667 4.83203C9.66667 5.7507 8.91933 6.4987 8 6.4987ZM8 4.16536C7.632 4.16536 7.33333 4.4647 7.33333 4.83203C7.33333 5.19936 7.632 5.4987 8 5.4987C8.368 5.4987 8.66667 5.19936 8.66667 4.83203C8.66667 4.4647 8.368 4.16536 8 4.16536ZM9.32935 10.832H6.66463C5.72463 10.832 5.16333 10.2734 5.16333 9.33805C5.16333 8.25605 5.83333 7.16536 7.33 7.16536H8.66333C10.16 7.16536 10.83 8.25672 10.83 9.33805C10.83 10.2734 10.2687 10.832 9.32935 10.832ZM7.33 8.16536C6.31533 8.16536 6.16333 8.90005 6.16333 9.33805C6.16333 9.72139 6.27597 9.83203 6.66463 9.83203H9.32935C9.71801 9.83203 9.83 9.72139 9.83 9.33805C9.83 8.90005 9.678 8.16536 8.66333 8.16536H7.33Z" fill="#707070"/>
</g>
</svg>
