<svg width="16" height="16" viewBox="0 0 16 16" fill="none" xmlns="http://www.w3.org/2000/svg">
<g id="Icons Bold / user-tag">
<path id="Vector" d="M11.778 1.33203H4.22268C2.74134 1.33203 2.00067 2.0727 2.00067 3.55404V10.2207C2.00067 11.702 2.74134 12.4427 4.22268 12.4427H5.22268C5.57268 12.4427 5.90202 12.6074 6.11135 12.8874L7.11135 14.2207C7.55602 14.8134 8.44468 14.8134 8.88934 14.2207L9.88934 12.8874C10.0993 12.6074 10.4287 12.4427 10.778 12.4427H11.778C13.2593 12.4427 14 11.702 14 10.2207V3.55404C14 2.0727 13.2593 1.33203 11.778 1.33203ZM8.00002 3.33203C8.82669 3.33203 9.50002 4.0047 9.50002 4.83203C9.50002 5.65936 8.82669 6.33203 8.00002 6.33203C7.17335 6.33203 6.50002 5.65936 6.50002 4.83203C6.50002 4.0047 7.17335 3.33203 8.00002 3.33203ZM9.32937 10.6654H6.66465C5.81665 10.6654 5.33002 10.1814 5.33002 9.33805C5.33002 8.41272 5.85402 7.33203 7.33002 7.33203H8.66335C10.1394 7.33203 10.6634 8.41272 10.6634 9.33805C10.6634 10.1814 10.1774 10.6654 9.32937 10.6654Z" fill="#171717"/>
</g>
</svg>
