<svg width="21" height="20" viewBox="0 0 21 20" fill="none" xmlns="http://www.w3.org/2000/svg">
<path d="M15.3555 1.875H5.98047C3.7638 1.875 2.54297 3.09583 2.54297 5.3125V14.6875C2.54297 16.9042 3.7638 18.125 5.98047 18.125H15.3555C17.5721 18.125 18.793 16.9042 18.793 14.6875V5.3125C18.793 3.09583 17.5721 1.875 15.3555 1.875ZM17.543 5.3125V6.875H13.793V3.125H15.3555C16.8888 3.125 17.543 3.77917 17.543 5.3125ZM8.79297 6.875V3.125H12.543V6.875H8.79297ZM5.98047 3.125H7.54297V6.875H3.79297V5.3125C3.79297 3.77917 4.44714 3.125 5.98047 3.125ZM15.3555 16.875H5.98047C4.44714 16.875 3.79297 16.2208 3.79297 14.6875V8.125H17.543V14.6875C17.543 16.2208 16.8888 16.875 15.3555 16.875ZM13.1455 10.9292L10.5221 9.32332C10.0871 9.05666 9.54048 9.04669 9.09631 9.29586C8.64548 9.54836 8.37712 10.0066 8.37712 10.5225V13.6442C8.37712 14.16 8.64548 14.6183 9.09631 14.8708C9.31048 14.9908 9.548 15.0509 9.7855 15.0509C10.0413 15.0509 10.2963 14.9817 10.5221 14.8433L13.1447 13.2383C13.5505 12.99 13.793 12.5583 13.793 12.0833C13.793 11.6083 13.5505 11.1767 13.1455 10.9292ZM12.4921 12.1716L9.86881 13.7775C9.80048 13.8183 9.74384 13.8009 9.70717 13.7809C9.67051 13.7601 9.6263 13.72 9.6263 13.6442V10.5225C9.6263 10.4475 9.67051 10.4066 9.70717 10.3857C9.72717 10.3741 9.75465 10.3642 9.78632 10.3642C9.81132 10.3642 9.83963 10.3709 9.86963 10.3892L12.4929 11.995C12.4929 11.995 12.493 11.995 12.4938 11.995C12.5263 12.015 12.5438 12.045 12.5438 12.0825C12.5438 12.12 12.5254 12.1516 12.4921 12.1716Z" fill="currentColor"/>
</svg>
