<svg width="240" height="238" viewBox="0 0 240 238" fill="none" xmlns="http://www.w3.org/2000/svg">
<path d="M114.331 191.812C159.869 191.812 196.787 154.893 196.787 109.192C196.787 63.491 159.707 26.5723 114.331 26.5723C68.7933 26.5723 31.875 63.491 31.875 109.192C31.875 154.893 68.7933 191.812 114.331 191.812Z" fill="#E5E5E5"/>
<path d="M191.422 55.0345C195.105 55.0345 198.09 52.0491 198.09 48.3664C198.09 44.6837 195.105 41.6982 191.422 41.6982C187.739 41.6982 184.754 44.6837 184.754 48.3664C184.754 52.0491 187.739 55.0345 191.422 55.0345Z" fill="white"/>
<path d="M201.181 29.012C203.696 29.012 205.735 26.9732 205.735 24.4582C205.735 21.9431 203.696 19.9043 201.181 19.9043C198.666 19.9043 196.627 21.9431 196.627 24.4582C196.627 26.9732 198.666 29.012 201.181 29.012Z" fill="white"/>
<path d="M36.2667 54.8724C38.7817 54.8724 40.8205 52.8335 40.8205 50.3185C40.8205 47.8035 38.7817 45.7646 36.2667 45.7646C33.7517 45.7646 31.7129 47.8035 31.7129 50.3185C31.7129 52.8335 33.7517 54.8724 36.2667 54.8724Z" fill="white"/>
<path d="M8.45705 142.696C13.1277 142.696 16.9141 138.909 16.9141 134.238C16.9141 129.568 13.1277 125.781 8.45705 125.781C3.78635 125.781 0 129.568 0 134.238C0 138.909 3.78635 142.696 8.45705 142.696Z" fill="white"/>
<path d="M240 83.2523H231.932V75.1836H225.016V83.2523H216.947V90.3988H225.016V98.4675H231.932V90.3988H240V83.2523Z" fill="#D4D4D4"/>
<path d="M106.477 6.89755H99.5791V0H93.667V6.89755H86.7695V13.0068H93.667V19.9043H99.5791V13.0068H106.477V6.89755Z" fill="#D4D4D4"/>
<path d="M25.2946 75.7126H19.4015V69.8193H14.3502V75.7126H8.45703V80.9323H14.3502V86.8255H19.4015V80.9323H25.2946V75.7126Z" fill="#D4D4D4"/>
<g filter="url(#filter0_d_2228_46908)">
<path d="M172.334 93.2571L156.048 53.4897C153.145 46.4199 145.57 42.38 138.122 44.0212L96.0823 53.1109C92.5475 53.8684 89.5176 56.2671 87.7502 59.4232L47.7308 135.676C46.0897 138.832 47.2258 142.872 50.5082 144.513L122.972 182.639C126.128 184.28 130.168 183.144 131.809 179.862L171.829 103.609C173.596 100.453 173.722 96.6657 172.334 93.2571ZM132.062 77.2239C126.886 74.5727 124.866 68.1342 127.643 62.9581C130.294 57.782 136.733 55.7621 141.909 58.5395C147.085 61.1907 149.105 67.6292 146.327 72.8053C143.676 77.9814 137.238 80.0013 132.062 77.2239Z" fill="white"/>
</g>
<path d="M137.239 67.5035C170.189 50.4603 183.192 25.0849 166.023 14.1015C148.854 3.1181 131.937 14.1015 127.645 46.0417" stroke="#A3A3A3" stroke-width="8.13183" stroke-miterlimit="10" stroke-linecap="round" stroke-linejoin="round"/>
<path d="M181.433 144.526C180.908 146.755 180.122 149.115 179.204 151.082C176.712 155.934 172.778 159.737 167.926 162.228C162.944 164.72 157.043 165.769 151.142 164.458C137.242 161.573 128.325 147.935 131.21 134.035C134.095 120.135 147.601 111.087 161.501 114.103C166.484 115.152 170.811 117.643 174.483 121.053C180.646 127.216 183.269 136.133 181.433 144.526Z" fill="#E09D37"/>
<path d="M164.519 137.051H158.618V131.15C158.618 129.97 157.7 128.921 156.389 128.921C155.208 128.921 154.159 129.839 154.159 131.15V137.051H148.259C147.078 137.051 146.029 137.969 146.029 139.28C146.029 140.592 146.947 141.51 148.259 141.51H154.159V147.41C154.159 148.591 155.077 149.64 156.389 149.64C157.569 149.64 158.618 148.722 158.618 147.41V141.51H164.519C165.699 141.51 166.748 140.592 166.748 139.28C166.748 137.969 165.699 137.051 164.519 137.051Z" fill="white"/>
<defs>
<filter id="filter0_d_2228_46908" x="11.2063" y="25.7672" width="197.851" height="211.287" filterUnits="userSpaceOnUse" color-interpolation-filters="sRGB">
<feFlood flood-opacity="0" result="BackgroundImageFix"/>
<feColorMatrix in="SourceAlpha" type="matrix" values="0 0 0 0 0 0 0 0 0 0 0 0 0 0 0 0 0 0 127 0" result="hardAlpha"/>
<feOffset dy="17.89"/>
<feGaussianBlur stdDeviation="17.89"/>
<feColorMatrix type="matrix" values="0 0 0 0 0.397708 0 0 0 0 0.47749 0 0 0 0 0.575 0 0 0 0.27 0"/>
<feBlend mode="normal" in2="BackgroundImageFix" result="effect1_dropShadow_2228_46908"/>
<feBlend mode="normal" in="SourceGraphic" in2="effect1_dropShadow_2228_46908" result="shape"/>
</filter>
</defs>
</svg>
