<svg xmlns="http://www.w3.org/2000/svg" width="130" height="125" viewBox="0 0 130 125" fill="none">
  <path d="M65 120C98.1361 120 125 93.189 125 60C125 26.811 98.0178 0 65 0C31.8639 0 5 26.811 5 60C5 93.189 31.8639 120 65 120Z" fill="#F7F7F7"/>
  <g filter="url(#filter0_dd_460_39258)">
    <rect x="59.8262" y="23.5547" width="57.966" height="74.1006" rx="5.76" fill="#F7F7F7"/>
  </g>
  <rect opacity="0.7" x="68.2795" y="80.7266" width="41.0592" height="8.46395" rx="1.92" fill="#DBDBDB"/>
  <path d="M68.2795 68.6367H108.735" stroke="#DBDBDB" stroke-width="1.92" stroke-miterlimit="10"/>
  <path d="M68.2795 62.4727H108.735" stroke="#DBDBDB" stroke-width="1.92" stroke-miterlimit="10"/>
  <path d="M68.2795 74.4062H91.8282" stroke="#DBDBDB" stroke-width="1.92" stroke-miterlimit="10"/>
  <path d="M61.0331 28.6037C61.0331 26.4829 62.7523 24.7637 64.8731 24.7637H112.744C114.865 24.7637 116.584 26.4829 116.584 28.6037V54.3352H61.0331V28.6037Z" fill="#E8E8E8"/>
  <path d="M91.9492 35.7957C92.6289 35.7957 93.18 35.2206 93.18 34.5112C93.18 33.8017 92.6289 33.2266 91.9492 33.2266C91.2694 33.2266 90.7184 33.8017 90.7184 34.5112C90.7184 35.2206 91.2694 35.7957 91.9492 35.7957Z" fill="#DBDBDB"/>
  <path d="M92.0214 44.1389H82.6283C82.0223 44.1389 81.6688 43.4049 82.0223 42.9331L86.7188 36.1173C87.0218 35.6979 87.6279 35.6979 87.9309 36.1173L92.6274 42.9331C92.9809 43.4573 92.6274 44.1389 92.0214 44.1389Z" fill="#DBDBDB"/>
  <path opacity="0.7" d="M95.2916 44.0022H90.6687C89.9665 44.0022 89.6154 43.2402 89.9665 42.7126L92.2487 39.4884C92.5998 39.0195 93.2435 39.0195 93.5946 39.4884L95.8768 42.7126C96.4034 43.2402 95.9938 44.0022 95.2916 44.0022Z" fill="#DBDBDB"/>
  <g filter="url(#filter1_dd_460_39258)">
    <rect x="12.667" y="23.5547" width="57.966" height="74.1006" rx="5.76" fill="#F7F7F7"/>
  </g>
  <rect opacity="0.7" x="21.1215" y="80.7266" width="41.0592" height="8.46395" rx="1.92" fill="#DBDBDB"/>
  <path d="M21.1215 68.6367H61.5769" stroke="#DBDBDB" stroke-width="1.92" stroke-miterlimit="10"/>
  <path d="M21.1215 62.4727H61.5769" stroke="#DBDBDB" stroke-width="1.92" stroke-miterlimit="10"/>
  <path d="M21.1215 74.4062H44.6701" stroke="#DBDBDB" stroke-width="1.92" stroke-miterlimit="10"/>
  <path d="M13.8751 28.6037C13.8751 26.4829 15.5943 24.7637 17.7151 24.7637H65.5858C67.7066 24.7637 69.4258 26.4829 69.4258 28.6037V54.3352H13.8751V28.6037Z" fill="#E8E8E8"/>
  <path d="M44.8243 35.7957C45.504 35.7957 46.0551 35.2206 46.0551 34.5112C46.0551 33.8017 45.504 33.2266 44.8243 33.2266C44.1445 33.2266 43.5935 33.8017 43.5935 34.5112C43.5935 35.2206 44.1445 35.7957 44.8243 35.7957Z" fill="#DBDBDB"/>
  <path d="M44.897 44.1389H35.5039C34.8979 44.1389 34.5444 43.4049 34.8979 42.9331L39.5945 36.1173C39.8975 35.6979 40.5035 35.6979 40.8065 36.1173L45.503 42.9331C45.8565 43.4573 45.503 44.1389 44.897 44.1389Z" fill="#DBDBDB"/>
  <path opacity="0.7" d="M48.1662 44.0022H43.5433C42.8411 44.0022 42.49 43.2402 42.8411 42.7126L45.1233 39.4884C45.4744 39.0195 46.1181 39.0195 46.4692 39.4884L48.7514 42.7126C49.2781 43.2402 48.8685 44.0022 48.1662 44.0022Z" fill="#DBDBDB"/>
  <g filter="url(#filter2_dd_460_39258)">
    <rect x="33.8848" y="20.1836" width="64.8309" height="82.4871" rx="5.76" fill="#F7F7F7"/>
  </g>
  <rect x="43.3403" y="83.8281" width="45.9219" height="9.42188" rx="1.92" fill="#DBDBDB"/>
  <path d="M43.3403 70.3672H88.5869" stroke="#C7C7C7" stroke-width="1.92" stroke-miterlimit="10"/>
  <path d="M43.3403 63.5039H88.5869" stroke="#C7C7C7" stroke-width="1.92" stroke-miterlimit="10"/>
  <path d="M43.3403 76.7891H69.6779" stroke="#C7C7C7" stroke-width="1.92" stroke-miterlimit="10"/>
  <path d="M35.2365 25.3713C35.2365 23.2505 36.9557 21.5312 39.0764 21.5312H93.526C95.6468 21.5312 97.366 23.2505 97.366 25.3712V54.4497H35.2365V25.3713Z" fill="#E8E8E8"/>
  <path d="M69.9201 33.8131C70.6804 33.8131 71.2967 33.1729 71.2967 32.3831C71.2967 31.5933 70.6804 30.9531 69.9201 30.9531C69.1599 30.9531 68.5436 31.5933 68.5436 32.3831C68.5436 33.1729 69.1599 33.8131 69.9201 33.8131Z" fill="#858585"/>
  <path d="M70.0006 43.1019H59.495C58.8173 43.1019 58.4219 42.2849 58.8173 41.7596L64.07 34.1724C64.4089 33.7055 65.0867 33.7055 65.4256 34.1724L70.6784 41.7596C71.0737 42.3432 70.6784 43.1019 70.0006 43.1019Z" fill="#858585"/>
  <path opacity="0.7" d="M73.6579 42.9474H68.4875C67.7021 42.9474 67.3095 42.0991 67.7021 41.5118L70.2546 37.9228C70.6473 37.4007 71.3672 37.4007 71.7599 37.9228L74.3124 41.5118C74.9014 42.0991 74.4433 42.9474 73.6579 42.9474Z" fill="#858585"/>
  <defs>
    <filter id="filter0_dd_460_39258" x="47.8262" y="21.5547" width="81.9659" height="98.1016" filterUnits="userSpaceOnUse" color-interpolation-filters="sRGB">
      <feFlood flood-opacity="0" result="BackgroundImageFix"/>
      <feColorMatrix in="SourceAlpha" type="matrix" values="0 0 0 0 0 0 0 0 0 0 0 0 0 0 0 0 0 0 127 0" result="hardAlpha"/>
      <feOffset dy="4"/>
      <feGaussianBlur stdDeviation="3"/>
      <feColorMatrix type="matrix" values="0 0 0 0 0 0 0 0 0 0 0 0 0 0 0 0 0 0 0.05 0"/>
      <feBlend mode="normal" in2="BackgroundImageFix" result="effect1_dropShadow_460_39258"/>
      <feColorMatrix in="SourceAlpha" type="matrix" values="0 0 0 0 0 0 0 0 0 0 0 0 0 0 0 0 0 0 127 0" result="hardAlpha"/>
      <feMorphology radius="3" operator="erode" in="SourceAlpha" result="effect2_dropShadow_460_39258"/>
      <feOffset dy="10"/>
      <feGaussianBlur stdDeviation="7.5"/>
      <feColorMatrix type="matrix" values="0 0 0 0 0 0 0 0 0 0 0 0 0 0 0 0 0 0 0.1 0"/>
      <feBlend mode="normal" in2="effect1_dropShadow_460_39258" result="effect2_dropShadow_460_39258"/>
      <feBlend mode="normal" in="SourceGraphic" in2="effect2_dropShadow_460_39258" result="shape"/>
    </filter>
    <filter id="filter1_dd_460_39258" x="0.666992" y="21.5547" width="81.9659" height="98.1016" filterUnits="userSpaceOnUse" color-interpolation-filters="sRGB">
      <feFlood flood-opacity="0" result="BackgroundImageFix"/>
      <feColorMatrix in="SourceAlpha" type="matrix" values="0 0 0 0 0 0 0 0 0 0 0 0 0 0 0 0 0 0 127 0" result="hardAlpha"/>
      <feOffset dy="4"/>
      <feGaussianBlur stdDeviation="3"/>
      <feColorMatrix type="matrix" values="0 0 0 0 0 0 0 0 0 0 0 0 0 0 0 0 0 0 0.05 0"/>
      <feBlend mode="normal" in2="BackgroundImageFix" result="effect1_dropShadow_460_39258"/>
      <feColorMatrix in="SourceAlpha" type="matrix" values="0 0 0 0 0 0 0 0 0 0 0 0 0 0 0 0 0 0 127 0" result="hardAlpha"/>
      <feMorphology radius="3" operator="erode" in="SourceAlpha" result="effect2_dropShadow_460_39258"/>
      <feOffset dy="10"/>
      <feGaussianBlur stdDeviation="7.5"/>
      <feColorMatrix type="matrix" values="0 0 0 0 0 0 0 0 0 0 0 0 0 0 0 0 0 0 0.1 0"/>
      <feBlend mode="normal" in2="effect1_dropShadow_460_39258" result="effect2_dropShadow_460_39258"/>
      <feBlend mode="normal" in="SourceGraphic" in2="effect2_dropShadow_460_39258" result="shape"/>
    </filter>
    <filter id="filter2_dd_460_39258" x="21.8848" y="18.1836" width="88.8309" height="106.486" filterUnits="userSpaceOnUse" color-interpolation-filters="sRGB">
      <feFlood flood-opacity="0" result="BackgroundImageFix"/>
      <feColorMatrix in="SourceAlpha" type="matrix" values="0 0 0 0 0 0 0 0 0 0 0 0 0 0 0 0 0 0 127 0" result="hardAlpha"/>
      <feOffset dy="4"/>
      <feGaussianBlur stdDeviation="3"/>
      <feColorMatrix type="matrix" values="0 0 0 0 0 0 0 0 0 0 0 0 0 0 0 0 0 0 0.05 0"/>
      <feBlend mode="normal" in2="BackgroundImageFix" result="effect1_dropShadow_460_39258"/>
      <feColorMatrix in="SourceAlpha" type="matrix" values="0 0 0 0 0 0 0 0 0 0 0 0 0 0 0 0 0 0 127 0" result="hardAlpha"/>
      <feMorphology radius="3" operator="erode" in="SourceAlpha" result="effect2_dropShadow_460_39258"/>
      <feOffset dy="10"/>
      <feGaussianBlur stdDeviation="7.5"/>
      <feColorMatrix type="matrix" values="0 0 0 0 0 0 0 0 0 0 0 0 0 0 0 0 0 0 0.1 0"/>
      <feBlend mode="normal" in2="effect1_dropShadow_460_39258" result="effect2_dropShadow_460_39258"/>
      <feBlend mode="normal" in="SourceGraphic" in2="effect2_dropShadow_460_39258" result="shape"/>
    </filter>
  </defs>
</svg>