<svg xmlns="http://www.w3.org/2000/svg" width="136" height="120" viewBox="0 0 136 120" fill="none">
  <path d="M61.7128 120C94.8261 120 121.67 93.1371 121.67 60C121.67 26.8629 94.8261 0 61.7128 0C28.5996 0 1.75598 26.8629 1.75598 60C1.75598 93.1371 28.5996 120 61.7128 120Z" fill="#F7F7F7"/>
  <g filter="url(#filter0_dd_460_39208)">
    <path d="M123.408 32.9879V90.1884C123.408 92.7609 121.291 94.8795 118.721 94.8795H61.5615C58.9908 94.8795 56.8738 92.7609 56.8738 90.1884V32.9879C56.8738 30.4154 58.9908 28.2969 61.5615 28.2969H118.721C121.291 28.2969 123.408 30.4154 123.408 32.9879Z" fill="white"/>
  </g>
  <path d="M123.409 32.9879V36.3927H56.8738V32.9879C56.8738 30.4154 58.9909 28.2969 61.5615 28.2969H118.721C121.292 28.2969 123.409 30.4154 123.409 32.9879Z" fill="#707070"/>
  <path d="M61.7126 33.8205C62.506 33.8205 63.1491 33.1768 63.1491 32.3829C63.1491 31.5889 62.506 30.9453 61.7126 30.9453C60.9192 30.9453 60.2761 31.5889 60.2761 32.3829C60.2761 33.1768 60.9192 33.8205 61.7126 33.8205Z" fill="#F2F2F2"/>
  <path opacity="0.6" d="M66.2494 33.8205C67.0428 33.8205 67.686 33.1768 67.686 32.3829C67.686 31.5889 67.0428 30.9453 66.2494 30.9453C65.456 30.9453 64.8129 31.5889 64.8129 32.3829C64.8129 33.1768 65.456 33.8205 66.2494 33.8205Z" fill="#F2F2F2"/>
  <path opacity="0.4" d="M70.7102 33.8205C71.5036 33.8205 72.1468 33.1768 72.1468 32.3829C72.1468 31.5889 71.5036 30.9453 70.7102 30.9453C69.9168 30.9453 69.2737 31.5889 69.2737 32.3829C69.2737 33.1768 69.9168 33.8205 70.7102 33.8205Z" fill="#F2F2F2"/>
  <path d="M115.621 87.5419H64.5863C63.3766 87.5419 62.3937 86.2124 62.3937 84.5761V43.9755C62.3937 42.3393 63.3766 41.0098 64.5863 41.0098H115.621C116.831 41.0098 117.814 42.3393 117.814 43.9755V84.5761C117.89 86.2124 116.907 87.5419 115.621 87.5419Z" stroke="#C7C7C7" stroke-miterlimit="10" stroke-dasharray="2.88 2.88"/>
  <path d="M106.548 62.346H73.7344C73.3563 62.346 73.0539 62.0434 73.0539 61.6651V60.7571C73.0539 60.3788 73.3563 60.0762 73.7344 60.0762H106.548C106.926 60.0762 107.229 60.3788 107.229 60.7571V61.6651C107.229 61.9677 106.926 62.346 106.548 62.346Z" fill="#C7C7C7"/>
  <path d="M96.795 67.9437H83.4124C83.0344 67.9437 82.7319 67.641 82.7319 67.2627V66.3548C82.7319 65.9765 83.0344 65.6738 83.4124 65.6738H96.795C97.173 65.6738 97.4754 65.9765 97.4754 66.3548V67.2627C97.4754 67.641 97.173 67.9437 96.795 67.9437Z" fill="#C7C7C7"/>
  <path d="M42.9622 43.1271H2.66337C1.75608 43.1271 1 42.3704 1 41.4625V31.4751C1 30.5672 1.75608 29.8105 2.66337 29.8105H42.9622C43.8695 29.8105 44.6256 30.5672 44.6256 31.4751V41.4625C44.7012 42.3704 43.9451 43.1271 42.9622 43.1271Z" fill="white" stroke="#DBDBDB" stroke-width="1.92" stroke-miterlimit="10"/>
  <path d="M39.1065 37.6038H6.29283C5.9148 37.6038 5.61237 37.3012 5.61237 36.9229V36.0149C5.61237 35.6366 5.9148 35.334 6.29283 35.334H39.1065C39.4846 35.334 39.787 35.6366 39.787 36.0149V36.9229C39.787 37.3012 39.4846 37.6038 39.1065 37.6038Z" fill="#C7C7C7"/>
  <path d="M42.9622 60.3785H2.66337C1.75608 60.3785 1 59.6219 1 58.7139V48.6509C1 47.743 1.75608 46.9863 2.66337 46.9863H42.9622C43.8695 46.9863 44.6256 47.743 44.6256 48.6509V58.6383C44.7012 59.6219 43.9451 60.3785 42.9622 60.3785Z" fill="white" stroke="#DBDBDB" stroke-width="1.92" stroke-miterlimit="10"/>
  <path d="M42.9622 77.6305H2.66337C1.75608 77.6305 1 76.8738 1 75.9659V65.9028C1 64.9949 1.75608 64.2383 2.66337 64.2383H42.9622C43.8695 64.2383 44.6256 64.9949 44.6256 65.9028V75.8902C44.7012 76.8738 43.9451 77.6305 42.9622 77.6305Z" fill="#E8E8E8" stroke="#DBDBDB" stroke-width="0.96" stroke-miterlimit="10" stroke-dasharray="2.83 2.83"/>
  <path d="M39.1065 54.8558H6.29283C5.9148 54.8558 5.61237 54.5531 5.61237 54.1748V53.2669C5.61237 52.8886 5.9148 52.5859 6.29283 52.5859H39.1065C39.4846 52.5859 39.787 52.8886 39.787 53.2669V54.1748C39.787 54.5531 39.4846 54.8558 39.1065 54.8558Z" fill="#C7C7C7"/>
  <path d="M42.9622 94.879H2.66337C1.75608 94.879 1 94.1224 1 93.2145V83.2271C1 82.3191 1.75608 81.5625 2.66337 81.5625H42.9622C43.8695 81.5625 44.6256 82.3191 44.6256 83.2271V93.2145C44.7012 94.1224 43.9451 94.879 42.9622 94.879Z" fill="white" stroke="#DBDBDB" stroke-width="1.92" stroke-miterlimit="10"/>
  <path d="M39.1065 89.3558H6.29283C5.9148 89.3558 5.61237 89.0531 5.61237 88.6748V87.7669C5.61237 87.3886 5.9148 87.0859 6.29283 87.0859H39.1065C39.4846 87.0859 39.787 87.3886 39.787 87.7669V88.6748C39.787 89.0531 39.4846 89.3558 39.1065 89.3558Z" fill="#C7C7C7"/>
  <path d="M63.7542 73.1656H23.4554C22.5481 73.1656 21.792 72.409 21.792 71.5011V61.438C21.792 60.5301 22.5481 59.7734 23.4554 59.7734H63.7542C64.6615 59.7734 65.4176 60.5301 65.4176 61.438V71.4254C65.4176 72.409 64.6615 73.1656 63.7542 73.1656Z" fill="white" stroke="#DBDBDB" stroke-width="1.92" stroke-miterlimit="10"/>
  <path d="M74.2639 69.8069C75.1318 69.8069 75.8262 70.5017 75.8262 71.3703V81.4457C75.8262 83.704 74.0903 85.4412 71.8336 85.4412H65.2372C64.5429 85.4412 63.8485 85.2675 63.5013 84.7463C61.939 83.3566 58.6408 80.5772 57.9465 79.5349C57.7729 79.1875 57.5993 79.0137 57.5993 78.6663V76.408C57.5993 75.0183 58.6408 73.976 60.0295 73.976H60.8975V78.3189H61.4183V69.2857C61.4183 68.4172 62.1126 67.7223 62.9806 67.7223C63.8485 67.7223 64.5429 68.4172 64.5429 69.2857V71.0229H65.0636V68.7646C65.0636 67.896 65.758 67.2012 66.6259 67.2012C67.4939 67.2012 68.1883 67.896 68.1883 68.7646V71.0229H68.8826V69.8069C68.8826 68.9383 69.577 68.2435 70.4449 68.2435C71.3129 68.2435 72.0072 68.9383 72.0072 69.8069V71.0229H72.7016C72.8752 70.328 73.3959 69.8069 74.2639 69.8069Z" fill="white" stroke="#C7C7C7" stroke-width="1.92" stroke-miterlimit="10" stroke-linecap="round" stroke-linejoin="round"/>
  <path d="M59.5794 67.5394H26.7657C26.3876 67.5394 26.0852 67.2367 26.0852 66.8584V65.9505C26.0852 65.5722 26.3876 65.2695 26.7657 65.2695H59.5794C59.9574 65.2695 60.2598 65.5722 60.2598 65.9505V66.8584C60.2598 67.2367 59.9574 67.5394 59.5794 67.5394Z" fill="#C7C7C7"/>
  <defs>
    <filter id="filter0_dd_460_39208" x="44.8738" y="26.2969" width="90.5347" height="90.582" filterUnits="userSpaceOnUse" color-interpolation-filters="sRGB">
      <feFlood flood-opacity="0" result="BackgroundImageFix"/>
      <feColorMatrix in="SourceAlpha" type="matrix" values="0 0 0 0 0 0 0 0 0 0 0 0 0 0 0 0 0 0 127 0" result="hardAlpha"/>
      <feOffset dy="4"/>
      <feGaussianBlur stdDeviation="3"/>
      <feColorMatrix type="matrix" values="0 0 0 0 0 0 0 0 0 0 0 0 0 0 0 0 0 0 0.05 0"/>
      <feBlend mode="normal" in2="BackgroundImageFix" result="effect1_dropShadow_460_39208"/>
      <feColorMatrix in="SourceAlpha" type="matrix" values="0 0 0 0 0 0 0 0 0 0 0 0 0 0 0 0 0 0 127 0" result="hardAlpha"/>
      <feMorphology radius="3" operator="erode" in="SourceAlpha" result="effect2_dropShadow_460_39208"/>
      <feOffset dy="10"/>
      <feGaussianBlur stdDeviation="7.5"/>
      <feColorMatrix type="matrix" values="0 0 0 0 0 0 0 0 0 0 0 0 0 0 0 0 0 0 0.1 0"/>
      <feBlend mode="normal" in2="effect1_dropShadow_460_39208" result="effect2_dropShadow_460_39208"/>
      <feBlend mode="normal" in="SourceGraphic" in2="effect2_dropShadow_460_39208" result="shape"/>
    </filter>
  </defs>
</svg>